<svg version="1.1" id="Layer_1" xmlns="http://www.w3.org/2000/svg" xmlns:xlink="http://www.w3.org/1999/xlink" x="0px" y="0px"
	 width="100%" viewBox="0 0 595 521" enable-background="new 0 0 595 521" xml:space="preserve">
<path fill="#01406E" opacity="1.000000" stroke="none" 
	d="
M1.000000,364.000000 
	C1.000000,363.250000 1.000000,362.500000 1.377248,361.392090 
	C2.308175,360.074219 3.078411,359.178040 3.382894,358.144653 
	C7.630545,343.728455 11.678178,329.251495 16.101404,314.890015 
	C17.344170,310.854950 16.970545,307.327850 15.792359,303.413269 
	C11.652243,289.657532 7.868362,275.794830 3.801002,262.016510 
	C3.362615,260.531464 1.956964,259.331970 0.999999,258.000000 
	C1.000000,257.250000 1.000000,256.500000 1.465245,255.440063 
	C17.419720,255.087784 32.912079,254.860275 48.396172,255.121994 
	C52.735168,255.195328 54.450783,253.627411 55.708134,249.734802 
	C64.544487,222.378311 76.255417,196.300507 90.782349,171.470062 
	C104.702095,147.677460 120.732170,125.389046 139.469666,105.230286 
	C157.323059,86.022736 176.646667,68.370590 198.166000,53.143574 
	C228.367096,31.773365 260.281555,13.934855 295.786011,2.961839 
	C296.644135,2.696622 297.267273,1.670976 298.000000,1.000001 
	C298.444458,1.000000 298.888885,1.000000 299.635590,1.366187 
	C300.993744,2.461545 301.970123,3.362519 303.117584,3.893958 
	C318.716644,11.118352 334.544525,17.881330 349.912781,25.564503 
	C379.971558,40.591984 407.117920,60.047569 431.911896,82.606049 
	C452.057617,100.935356 470.156128,121.277779 485.771851,143.645279 
	C508.926117,176.810730 527.140991,212.545258 540.015686,250.927643 
	C541.113464,254.200363 542.715332,255.119705 546.059326,255.083878 
	C562.704590,254.905502 579.352844,255.000946 596.000000,255.000000 
	C596.000000,256.714355 596.000000,258.428711 595.618835,260.560608 
	C594.975220,261.168915 594.546631,261.310822 594.474060,261.557404 
	C589.952881,276.936279 585.429016,292.314636 581.022339,307.726440 
	C580.644775,309.046967 580.770081,310.680176 581.158386,312.024750 
	C585.377258,326.633270 589.674133,341.219482 594.040100,355.784729 
	C594.297058,356.641968 595.328796,357.266937 596.000000,358.000000 
	C596.000000,359.714355 596.000000,361.428711 595.531372,363.570923 
	C585.152222,363.998749 575.241760,363.998749 565.323669,363.998749 
	C565.950928,375.818604 566.887085,386.706787 567.027527,397.605194 
	C567.268982,416.344208 567.046509,435.089905 566.882935,453.831635 
	C566.873657,454.886230 565.862610,456.250641 564.924255,456.914215 
	C562.769653,458.437866 560.417236,459.705261 558.065735,460.923431 
	C533.138062,473.836884 507.155396,484.408020 480.443115,492.747101 
	C456.509125,500.218872 432.007446,505.959106 407.585358,511.741669 
	C396.380737,514.394653 384.794861,515.546692 373.330139,516.959961 
	C362.672180,518.273865 351.941650,518.992615 341.256989,520.107178 
	C340.447632,520.191589 339.749725,521.343994 339.000000,522.000000 
	C314.645782,522.000000 290.291534,522.000000 265.447449,521.583618 
	C264.110931,520.785034 263.290344,520.148376 262.413696,520.058594 
	C248.940628,518.677246 235.367722,517.965759 222.003510,515.899109 
	C202.450378,512.875488 182.755081,510.010040 163.648911,505.043762 
	C137.928253,498.358185 112.382072,490.649445 87.386169,481.644470 
	C69.085678,475.051636 51.769539,465.712250 34.092953,457.429962 
	C32.749500,456.800476 31.394201,454.944672 31.144461,453.472321 
	C30.455769,449.412262 30.026632,445.249634 30.070213,441.133698 
	C30.291988,420.188812 30.638727,399.244598 31.081219,378.303131 
	C31.177254,373.758270 31.845606,369.225525 32.311646,364.000000 
	C21.217808,364.000000 11.108904,364.000000 1.000000,364.000000 
M303.036774,362.901825 
	C228.223175,362.895874 153.409576,362.886902 78.595970,362.890015 
	C72.767525,362.890259 66.939079,362.975220 60.186230,362.956940 
	C57.412998,362.956940 54.639771,362.956940 51.735596,362.956940 
	C51.474812,364.960571 51.159443,366.427246 51.110615,367.902710 
	C50.416779,388.868347 49.583958,409.831604 49.155106,430.802979 
	C48.876526,444.426025 49.096676,444.541016 61.428406,450.103271 
	C160.494400,494.787292 263.927490,511.450714 371.948151,498.126099 
	C432.074738,490.709320 489.098053,472.874023 543.549255,446.473328 
	C547.307251,444.651215 548.722534,442.479889 548.579651,438.524597 
	C548.441833,434.709076 549.005066,430.869110 548.881226,427.052155 
	C548.192261,405.815704 547.388062,384.582977 546.612122,363.039276 
	C542.247620,363.039276 539.120789,363.039276 535.065674,362.903595 
	C464.884155,362.897369 394.702637,362.890320 324.521118,362.891998 
	C323.360474,362.892029 322.199860,362.998352 320.106445,362.889618 
	C314.724121,362.942139 309.341766,362.994690 303.036774,362.901825 
M85.685417,255.944489 
	C98.086975,255.919067 110.488525,255.893646 123.836067,255.946625 
	C240.399124,255.957291 356.962189,255.968063 473.525238,255.975082 
	C474.023773,255.975113 474.522339,255.921387 475.952850,255.968109 
	C487.355469,255.915085 498.758087,255.862061 511.049835,255.955902 
	C514.345093,255.955902 517.640320,255.955902 521.371521,255.955902 
	C520.870422,254.291641 520.556030,253.032639 520.116699,251.818878 
	C480.874969,143.400803 407.975281,67.273499 301.139893,23.791773 
	C299.086823,22.956177 296.153717,22.814367 294.131927,23.614344 
	C283.016113,28.012617 271.746735,32.190933 261.092010,37.559933 
	C173.920380,81.486412 113.877121,149.846832 79.034210,240.720352 
	C77.156830,245.616714 75.513412,250.602768 73.685783,255.759552 
	C77.774277,255.759552 81.252060,255.759552 85.685417,255.944489 
M553.731873,314.825073 
	C555.495422,293.400452 546.181763,281.827820 525.901550,280.546478 
	C519.440247,280.138214 512.944702,280.165680 506.465302,280.179718 
	C499.787720,280.194153 499.495392,280.629364 499.464478,287.239380 
	C499.392151,302.703827 499.364044,318.169464 499.114471,333.631317 
	C499.060669,336.963776 500.805969,337.708954 503.374176,337.698792 
	C511.679596,337.665894 520.004456,337.840271 528.285217,337.335114 
	C542.011414,336.497803 550.069458,328.678986 553.731873,314.825073 
M151.845139,301.267914 
	C151.779938,289.537567 144.934708,281.627716 133.205902,280.772583 
	C123.943176,280.097290 114.612343,280.397064 105.316345,280.113342 
	C102.372086,280.023468 101.504807,281.467773 101.488472,284.022919 
	C101.382423,300.607697 101.194160,317.192780 101.292076,333.776245 
	C101.300018,335.120911 103.139481,337.485809 104.313148,337.608795 
	C108.700676,338.068634 113.165321,337.792664 118.166443,337.792664 
	C118.166443,331.211884 118.166443,325.197052 118.166443,319.182220 
	C118.601135,318.838593 119.035828,318.494934 119.470520,318.151306 
	C121.581062,319.591339 124.144043,320.657684 125.707100,322.549957 
	C128.870758,326.380035 131.438629,330.696991 134.371033,334.726654 
	C135.219086,335.892059 136.428146,337.571259 137.546768,337.631989 
	C143.076675,337.932190 148.631760,337.768677 155.359512,337.768677 
	C149.733887,330.176727 144.985489,323.768616 140.050781,317.109070 
	C147.099930,313.993378 150.981506,309.182251 151.845139,301.267914 
M346.473511,325.412354 
	C346.473511,329.478302 346.473511,333.544250 346.473511,337.839966 
	C351.706787,337.839966 355.701965,338.144470 359.599609,337.661652 
	C360.831543,337.509033 362.732544,335.265076 362.752136,333.954712 
	C363.000336,317.342133 363.020874,300.724701 362.870361,284.110596 
	C362.859344,282.895294 361.167297,280.754608 360.105286,280.654694 
	C355.849121,280.254395 351.533203,280.489288 346.802460,280.489288 
	C346.802460,286.739746 346.806946,292.380951 346.800751,298.022156 
	C346.797180,301.278900 345.622101,302.743896 341.933411,302.335663 
	C338.002258,301.900543 333.965729,302.195526 329.992065,302.442749 
	C327.213318,302.615662 325.995209,301.770874 326.149048,298.850159 
	C326.393951,294.200317 326.588837,289.531982 326.420044,284.885468 
	C326.366882,283.422333 325.180878,280.831696 324.341156,280.759430 
	C319.644928,280.355499 314.895905,280.565155 309.833038,280.565155 
	C309.833038,299.297028 309.808838,317.085052 309.902374,334.872467 
	C309.907227,335.790588 310.878906,337.466583 311.468536,337.497681 
	C316.088409,337.741150 320.800476,338.092285 325.284698,337.292480 
	C326.066589,337.153046 325.914612,331.753967 326.183258,328.783142 
	C326.228149,328.286774 326.205994,327.784729 326.234863,327.286469 
	C326.877319,316.198730 326.877869,316.198761 338.008484,316.182526 
	C346.472626,316.170166 346.472626,316.170166 346.473511,325.412354 
M373.983124,325.298553 
	C373.983124,329.368835 373.983124,333.439087 373.983124,337.497009 
	C389.328766,337.497009 404.044952,337.497009 419.302917,337.497009 
	C419.302917,332.783173 419.302917,328.585510 419.302917,323.812500 
	C409.220612,323.812500 399.655548,323.812500 390.157257,323.812500 
	C389.454987,315.071259 389.495361,315.126678 397.498047,315.533936 
	C402.958649,315.811798 408.436188,315.780457 413.906586,315.813293 
	C414.679199,315.817932 416.105164,315.457062 416.129761,315.170837 
	C416.451630,311.431122 416.923309,307.633148 416.488281,303.952606 
	C416.387695,303.101379 413.033142,302.142944 411.148621,302.082306 
	C404.228699,301.859558 397.297302,301.993988 390.267517,301.993988 
	C390.267517,299.379883 390.267517,297.007751 390.267517,294.531067 
	C393.637451,294.531067 396.594666,294.531067 399.551849,294.531097 
	C402.550751,294.531128 405.549652,294.531250 408.548553,294.531250 
	C418.324097,294.531250 418.229004,294.527893 418.565216,284.976715 
	C418.693390,281.335876 417.600525,280.066315 413.719330,280.156281 
	C402.086212,280.425842 390.439148,280.382507 378.804565,280.133575 
	C375.042633,280.053070 373.861450,281.204681 373.910309,284.922821 
	C374.083130,298.071167 373.982849,311.223145 373.983124,325.298553 
M191.273102,328.176331 
	C192.105652,328.177673 192.938187,328.177765 193.770737,328.180573 
	C198.969330,328.198212 203.833466,328.617981 204.598465,335.417542 
	C204.700760,336.326691 205.886292,337.808685 206.620819,337.840057 
	C211.644699,338.054626 216.682114,337.952576 222.484665,337.952576 
	C221.560318,335.245361 221.151184,333.678955 220.506546,332.216370 
	C214.418411,318.403717 208.427444,304.545715 202.130295,290.828461 
	C197.031479,279.721588 196.869812,279.922638 184.435623,280.722137 
	C181.503632,280.910675 179.992996,281.831207 178.895187,284.534424 
	C176.585663,290.221283 173.907471,295.757782 171.414413,301.370972 
	C166.832840,311.686676 162.235229,321.995575 157.726028,332.342926 
	C155.585403,337.255096 156.294724,338.100525 161.682816,337.821869 
	C164.161453,337.693665 166.742462,338.225098 169.109955,337.701660 
	C170.879532,337.310425 173.560455,335.923737 173.800613,334.608643 
	C174.906036,328.555542 178.619385,327.464630 183.839966,328.075256 
	C185.977188,328.325226 188.163528,328.155273 191.273102,328.176331 
M452.665619,328.075714 
	C457.315308,328.222504 461.965302,328.487976 466.614624,328.476898 
	C470.059998,328.468658 472.165985,329.680878 472.995392,333.237213 
	C473.382965,334.899017 474.518097,337.615448 475.504364,337.702545 
	C480.624634,338.154694 485.806152,337.912994 491.846710,337.912994 
	C490.635681,334.749542 490.013336,332.889465 489.225098,331.102570 
	C483.336182,317.751923 477.510834,304.371918 471.473602,291.088348 
	C466.314240,279.736389 466.189575,279.669403 453.446991,280.952148 
	C451.613464,281.136719 449.130127,282.698059 448.356995,284.301758 
	C443.675446,294.012695 439.383087,303.912018 435.001556,313.766571 
	C432.104553,320.282288 429.239685,326.812866 426.432709,333.367767 
	C425.125702,336.419861 425.790527,338.164764 429.579803,337.878265 
	C432.214417,337.679047 434.889191,337.641113 437.519806,337.854462 
	C440.608795,338.105011 442.754242,337.320068 443.351898,333.985077 
	C444.198944,329.258240 446.987152,327.284698 452.665619,328.075714 
M91.747894,280.599182 
	C76.809387,280.585785 61.870243,280.515045 46.933777,280.682709 
	C45.892181,280.694397 44.101757,282.387115 43.981468,283.448029 
	C43.598202,286.828308 43.839451,290.279388 43.839451,294.260620 
	C49.713039,294.260620 54.777245,294.260620 60.541714,294.260620 
	C60.541714,309.035309 60.541714,323.238556 60.541714,337.574219 
	C66.455627,337.574219 71.646484,337.574219 76.852348,337.574219 
	C76.852348,324.709442 76.915924,312.275024 76.814354,299.841949 
	C76.783089,296.014404 77.107582,293.276825 82.199310,294.411438 
	C84.718941,294.972900 87.481400,294.669098 90.104973,294.433502 
	C91.216362,294.333710 93.172134,293.409790 93.176384,292.848541 
	C93.206604,288.856171 92.831039,284.860748 91.747894,280.599182 
M257.482117,325.353790 
	C257.566681,327.675720 258.086792,330.083801 257.647858,332.302155 
	C256.641998,337.385803 258.905151,338.128845 263.342133,337.978333 
	C272.967590,337.651764 282.611053,337.868652 292.247009,337.832916 
	C300.884064,337.800873 302.274261,340.484283 301.205688,328.714661 
	C301.072815,327.251099 301.187531,325.765045 301.187531,323.843628 
	C291.917877,323.843628 283.064941,323.843628 273.885681,323.843628 
	C273.885681,309.338348 273.885681,295.275208 273.885681,280.492188 
	C269.970734,280.492188 266.352875,280.702545 262.770081,280.438110 
	C258.446716,280.118988 257.072571,281.486694 257.230774,286.100067 
	C257.669250,298.885315 257.446503,311.693237 257.482117,325.353790 
M246.693359,328.361633 
	C246.693359,312.481995 246.693359,296.602356 246.693359,280.826904 
	C240.511658,280.826904 235.417679,280.826904 230.112305,280.826904 
	C230.112305,296.649384 230.047791,312.098846 230.135132,327.547485 
	C230.192612,337.713745 230.290573,337.717224 240.188202,337.859406 
	C241.995392,337.885345 243.803284,337.863129 246.149582,337.863129 
	C246.303009,334.859375 246.444641,332.086395 246.693359,328.361633 
z"/>
<path fill="#000000" opacity="1.000000" stroke="none" 
	d="
M596.000000,254.531342 
	C579.352844,255.000946 562.704590,254.905502 546.059326,255.083878 
	C542.715332,255.119705 541.113464,254.200363 540.015686,250.927643 
	C527.140991,212.545258 508.926117,176.810730 485.771851,143.645279 
	C470.156128,121.277779 452.057617,100.935356 431.911896,82.606049 
	C407.117920,60.047569 379.971558,40.591984 349.912781,25.564503 
	C334.544525,17.881330 318.716644,11.118352 303.117584,3.893958 
	C301.970123,3.362519 300.993744,2.461545 299.968933,1.366187 
	C398.588135,1.000000 497.176270,1.000000 596.000000,1.000000 
	C596.000000,85.354080 596.000000,169.708389 596.000000,254.531342 
z"/>
<path fill="#000000" opacity="1.000000" stroke="none" 
	d="
M297.531342,1.000001 
	C297.267273,1.670976 296.644135,2.696622 295.786011,2.961839 
	C260.281555,13.934855 228.367096,31.773365 198.166000,53.143574 
	C176.646667,68.370590 157.323059,86.022736 139.469666,105.230286 
	C120.732170,125.389046 104.702095,147.677460 90.782349,171.470062 
	C76.255417,196.300507 64.544487,222.378311 55.708134,249.734802 
	C54.450783,253.627411 52.735168,255.195328 48.396172,255.121994 
	C32.912079,254.860275 17.419720,255.087784 1.465245,255.065063 
	C1.000000,170.400604 1.000000,85.801208 1.000000,1.000000 
	C99.687469,1.000000 198.375076,1.000000 297.531342,1.000001 
z"/>
<path fill="#000000" opacity="1.000000" stroke="none" 
	d="
M1.000000,364.468658 
	C11.108904,364.000000 21.217808,364.000000 32.311646,364.000000 
	C31.845606,369.225525 31.177254,373.758270 31.081219,378.303131 
	C30.638727,399.244598 30.291988,420.188812 30.070213,441.133698 
	C30.026632,445.249634 30.455769,449.412262 31.144461,453.472321 
	C31.394201,454.944672 32.749500,456.800476 34.092953,457.429962 
	C51.769539,465.712250 69.085678,475.051636 87.386169,481.644470 
	C112.382072,490.649445 137.928253,498.358185 163.648911,505.043762 
	C182.755081,510.010040 202.450378,512.875488 222.003510,515.899109 
	C235.367722,517.965759 248.940628,518.677246 262.413696,520.058594 
	C263.290344,520.148376 264.110931,520.785034 264.978821,521.583618 
	C177.091309,522.000000 89.182610,522.000000 1.000000,522.000000 
	C1.000000,469.646088 1.000000,417.291718 1.000000,364.468658 
z"/>
<path fill="#000000" opacity="1.000000" stroke="none" 
	d="
M339.468658,522.000000 
	C339.749725,521.343994 340.447632,520.191589 341.256989,520.107178 
	C351.941650,518.992615 362.672180,518.273865 373.330139,516.959961 
	C384.794861,515.546692 396.380737,514.394653 407.585358,511.741669 
	C432.007446,505.959106 456.509125,500.218872 480.443115,492.747101 
	C507.155396,484.408020 533.138062,473.836884 558.065735,460.923431 
	C560.417236,459.705261 562.769653,458.437866 564.924255,456.914215 
	C565.862610,456.250641 566.873657,454.886230 566.882935,453.831635 
	C567.046509,435.089905 567.268982,416.344208 567.027527,397.605194 
	C566.887085,386.706787 565.950928,375.818604 565.323669,363.998749 
	C575.241760,363.998749 585.152222,363.998749 595.531372,363.999390 
	C596.000000,416.611115 596.000000,469.222198 596.000000,522.000000 
	C510.645844,522.000000 425.291595,522.000000 339.468658,522.000000 
z"/>
<path fill="#000000" opacity="1.000000" stroke="none" 
	d="
M0.999999,258.468658 
	C1.956964,259.331970 3.362615,260.531464 3.801002,262.016510 
	C7.868362,275.794830 11.652243,289.657532 15.792359,303.413269 
	C16.970545,307.327850 17.344170,310.854950 16.101404,314.890015 
	C11.678178,329.251495 7.630545,343.728455 3.382894,358.144653 
	C3.078411,359.178040 2.308175,360.074219 1.377248,361.017090 
	C1.000000,326.979095 1.000000,292.958221 0.999999,258.468658 
z"/>
<path fill="#000000" opacity="1.000000" stroke="none" 
	d="
M596.000000,357.531342 
	C595.328796,357.266937 594.297058,356.641968 594.040100,355.784729 
	C589.674133,341.219482 585.377258,326.633270 581.158386,312.024750 
	C580.770081,310.680176 580.644775,309.046967 581.022339,307.726440 
	C585.429016,292.314636 589.952881,276.936279 594.474060,261.557404 
	C594.546631,261.310822 594.975220,261.168915 595.618835,260.989075 
	C596.000000,293.020905 596.000000,325.041779 596.000000,357.531342 
z"/>
<path fill="#79BBE7" opacity="1.000000" stroke="none" 
	d="
M510.160706,255.809052 
	C498.758087,255.862061 487.355469,255.915085 475.330902,255.639984 
	C463.946198,240.525589 453.228851,225.705994 442.406036,210.963837 
	C434.054871,199.588455 425.571381,188.310242 417.102234,176.705597 
	C416.686279,176.008926 416.314850,175.595474 415.822937,174.859558 
	C404.749481,159.644958 393.796448,144.752838 382.116791,128.872772 
	C371.917755,144.230637 362.406708,158.552567 352.680298,173.045990 
	C352.269531,173.725357 352.074036,174.233215 351.590912,174.928131 
	C343.205139,186.896179 335.107025,198.677155 326.761993,210.817322 
	C321.797363,205.114365 317.360413,200.017593 312.816467,194.667892 
	C312.154480,193.953232 311.599518,193.491516 310.910339,192.718033 
	C303.644318,183.830200 296.512512,175.254150 290.142395,167.594009 
	C282.331055,174.802414 275.159119,181.420761 267.763733,188.118210 
	C267.132935,188.675385 266.725586,189.153427 266.042175,189.865295 
	C262.703796,193.717621 259.641479,197.336136 256.253540,201.339447 
	C253.818253,198.314804 252.614532,196.765640 251.354034,195.264130 
	C247.243790,190.367966 243.112839,185.489197 238.934387,180.353607 
	C238.623749,179.684418 238.368576,179.265366 237.959717,178.548401 
	C225.024017,161.798126 212.241989,145.345764 198.859695,128.120758 
	C187.205292,147.710037 176.117203,166.347427 164.838486,185.157379 
	C164.468719,185.806335 164.289597,186.282745 163.850983,186.999115 
	C150.024353,210.115479 136.457214,232.991852 122.890076,255.868240 
	C110.488525,255.893646 98.086975,255.919067 85.238419,255.472931 
	C85.014099,254.201569 85.190117,253.385254 85.466095,252.604294 
	C107.137016,191.280609 141.320374,138.244049 190.336273,95.183662 
	C220.996109,68.249054 255.084824,46.822319 293.474640,32.505558 
	C296.880157,31.235529 299.704956,31.453247 302.967194,32.859348 
	C374.285736,63.599049 431.350647,111.091080 472.565521,177.161530 
	C488.030731,201.953476 500.765442,228.093994 510.160706,255.809052 
M293.176361,144.066742 
	C297.096802,140.726318 301.017273,137.385895 305.539093,133.533066 
	C313.056458,136.839371 320.216614,135.020508 325.924957,127.352982 
	C326.539825,126.527061 328.574768,126.377052 329.888214,126.514282 
	C338.464508,127.410332 346.730713,123.114449 351.086517,115.312187 
	C354.907776,108.467476 354.253204,98.067589 349.629913,92.168671 
	C343.656067,84.546593 335.263397,81.365883 326.733398,84.041855 
	C323.194672,85.151985 321.205536,84.686974 318.824646,81.608383 
	C312.994995,74.070412 303.562561,73.062469 295.668945,78.550079 
	C294.229919,79.550476 292.818451,80.590530 291.451141,81.571442 
	C282.572662,72.630013 274.940704,70.483704 266.305115,74.932266 
	C254.964981,80.774025 254.323471,90.559753 257.541901,101.211113 
	C249.163422,107.355026 246.594833,113.933044 249.232300,121.952301 
	C251.661606,129.338715 258.588715,133.040298 269.410675,132.734863 
	C275.143158,143.554352 281.516815,146.763779 293.176361,144.066742 
z"/>
<path fill="#699D57" opacity="1.000000" stroke="none" 
	d="
M321.039215,363.055084 
	C322.199860,362.998352 323.360474,362.892029 324.521118,362.891998 
	C394.702637,362.890320 464.884155,362.897369 535.495483,363.413574 
	C537.000183,386.843872 538.042419,409.765778 539.185669,432.682709 
	C539.354126,436.059082 538.293518,437.876709 535.027893,439.480896 
	C481.838806,465.609436 425.856323,482.325317 367.081390,489.699280 
	C358.259369,490.806091 349.378937,491.447601 340.220764,492.333862 
	C351.378113,455.245178 330.856384,423.602997 298.100464,411.681580 
	C293.265350,409.921844 288.235413,408.703949 283.360626,407.044434 
	C279.638580,405.777374 274.612244,404.755463 275.183228,399.819336 
	C275.725586,395.130463 280.775299,395.691315 284.449341,394.946625 
	C295.333618,392.740417 306.524933,391.369507 316.962982,387.813477 
	C329.945068,383.390778 331.376953,375.428040 322.546082,365.015961 
	C322.013519,364.388031 321.540131,363.709869 321.039215,363.055084 
z"/>
<path fill="#699D57" opacity="1.000000" stroke="none" 
	d="
M61.110634,363.020813 
	C66.939079,362.975220 72.767525,362.890259 78.595970,362.890015 
	C153.409576,362.886902 228.223175,362.895874 303.657043,363.273956 
	C304.894562,364.203857 305.540375,364.733368 306.124542,365.323883 
	C310.745514,369.995544 310.131958,372.346313 303.760956,374.081360 
	C302.007355,374.558899 300.181396,374.904236 298.370636,375.014557 
	C291.895416,375.409088 285.332581,375.150208 278.951447,376.117920 
	C269.815186,377.503418 260.431519,378.724792 251.844666,381.890778 
	C241.336853,385.765015 239.134598,394.883850 245.446732,404.179565 
	C247.924133,407.827972 251.585007,410.664978 254.655228,413.920288 
	C259.884552,419.464905 265.799652,424.540497 270.120026,430.725800 
	C277.934784,441.913849 279.237488,454.267181 270.782349,465.638947 
	C258.722076,481.859497 242.239120,490.378448 221.823029,487.610535 
	C170.059021,480.592499 120.610680,465.297668 72.939148,444.109924 
	C58.527054,437.704437 58.227673,437.636780 58.636120,421.853271 
	C59.143822,402.234253 60.258244,382.630920 61.110634,363.020813 
z"/>
<path fill="#4B487D" opacity="1.000000" stroke="none" 
	d="
M312.923492,194.920837 
	C317.360413,200.017593 321.797363,205.114365 326.761993,210.817322 
	C335.107025,198.677155 343.205139,186.896179 351.941620,175.064240 
	C359.736267,179.794220 366.828461,181.235931 374.268250,175.341843 
	C380.246246,170.605835 385.893524,171.045532 391.645996,176.497406 
	C395.194946,179.860886 399.793182,184.299438 403.909943,184.288651 
	C408.328552,184.277115 412.734985,179.619156 417.146729,176.988831 
	C425.571381,188.310242 434.054871,199.588455 442.406036,210.963837 
	C453.228851,225.705994 463.946198,240.525589 474.864929,255.602295 
	C474.522339,255.921387 474.023773,255.975113 473.525238,255.975082 
	C356.962189,255.968063 240.399124,255.957291 123.363068,255.907440 
	C136.457214,232.991852 150.024353,210.115479 164.153946,187.154297 
	C167.761810,189.793976 170.807220,192.518448 173.863907,195.198868 
	C173.875198,195.154816 173.784470,195.148499 173.942093,195.454590 
	C175.396973,196.948349 176.694229,198.136017 177.994904,199.326828 
	C184.976593,194.541260 191.780075,190.369858 198.000824,185.460114 
	C203.093155,181.440964 207.777374,179.937347 213.463348,183.923553 
	C222.929825,190.560104 231.537292,189.830322 238.989853,180.603729 
	C243.112839,185.489197 247.243790,190.367966 251.354034,195.264130 
	C252.614532,196.765640 253.818253,198.314804 256.253540,201.339447 
	C259.641479,197.336136 262.703796,193.717621 266.298767,190.077332 
	C268.968872,192.126007 271.399872,193.973709 273.177429,196.317108 
	C276.113617,200.187973 279.335083,200.034134 283.535004,198.649017 
	C286.435394,197.692490 290.494751,196.913635 292.831909,198.216187 
	C299.643524,202.012451 305.368744,201.979324 310.867157,196.285736 
	C311.425262,195.707779 312.232086,195.370026 312.923492,194.920837 
z"/>
<path fill="#FCFDFC" opacity="1.000000" stroke="none" 
	d="
M60.648430,362.988892 
	C60.258244,382.630920 59.143822,402.234253 58.636120,421.853271 
	C58.227673,437.636780 58.527054,437.704437 72.939148,444.109924 
	C120.610680,465.297668 170.059021,480.592499 221.823029,487.610535 
	C242.239120,490.378448 258.722076,481.859497 270.782349,465.638947 
	C279.237488,454.267181 277.934784,441.913849 270.120026,430.725800 
	C265.799652,424.540497 259.884552,419.464905 254.655228,413.920288 
	C251.585007,410.664978 247.924133,407.827972 245.446732,404.179565 
	C239.134598,394.883850 241.336853,385.765015 251.844666,381.890778 
	C260.431519,378.724792 269.815186,377.503418 278.951447,376.117920 
	C285.332581,375.150208 291.895416,375.409088 298.370636,375.014557 
	C300.181396,374.904236 302.007355,374.558899 303.760956,374.081360 
	C310.131958,372.346313 310.745514,369.995544 306.124542,365.323883 
	C305.540375,364.733368 304.894562,364.203857 304.118347,363.346680 
	C309.341766,362.994690 314.724121,362.942139 320.572815,362.972351 
	C321.540131,363.709869 322.013519,364.388031 322.546082,365.015961 
	C331.376953,375.428040 329.945068,383.390778 316.962982,387.813477 
	C306.524933,391.369507 295.333618,392.740417 284.449341,394.946625 
	C280.775299,395.691315 275.725586,395.130463 275.183228,399.819336 
	C274.612244,404.755463 279.638580,405.777374 283.360626,407.044434 
	C288.235413,408.703949 293.265350,409.921844 298.100464,411.681580 
	C330.856384,423.602997 351.378113,455.245178 340.220764,492.333862 
	C349.378937,491.447601 358.259369,490.806091 367.081390,489.699280 
	C425.856323,482.325317 481.838806,465.609436 535.027893,439.480896 
	C538.293518,437.876709 539.354126,436.059082 539.185669,432.682709 
	C538.042419,409.765778 537.000183,386.843872 535.959717,363.481415 
	C539.120789,363.039276 542.247620,363.039276 546.612122,363.039276 
	C547.388062,384.582977 548.192261,405.815704 548.881226,427.052155 
	C549.005066,430.869110 548.441833,434.709076 548.579651,438.524597 
	C548.722534,442.479889 547.307251,444.651215 543.549255,446.473328 
	C489.098053,472.874023 432.074738,490.709320 371.948151,498.126099 
	C263.927490,511.450714 160.494400,494.787292 61.428406,450.103271 
	C49.096676,444.541016 48.876526,444.426025 49.155106,430.802979 
	C49.583958,409.831604 50.416779,388.868347 51.110615,367.902710 
	C51.159443,366.427246 51.474812,364.960571 51.735596,362.956940 
	C54.639771,362.956940 57.412998,362.956940 60.648430,362.988892 
z"/>
<path fill="#FAFBFD" opacity="1.000000" stroke="none" 
	d="
M510.605286,255.882477 
	C500.765442,228.093994 488.030731,201.953476 472.565521,177.161530 
	C431.350647,111.091080 374.285736,63.599049 302.967194,32.859348 
	C299.704956,31.453247 296.880157,31.235529 293.474640,32.505558 
	C255.084824,46.822319 220.996109,68.249054 190.336273,95.183662 
	C141.320374,138.244049 107.137016,191.280609 85.466095,252.604294 
	C85.190117,253.385254 85.014099,254.201569 84.760635,255.380463 
	C81.252060,255.759552 77.774277,255.759552 73.685783,255.759552 
	C75.513412,250.602768 77.156830,245.616714 79.034210,240.720352 
	C113.877121,149.846832 173.920380,81.486412 261.092010,37.559933 
	C271.746735,32.190933 283.016113,28.012617 294.131927,23.614344 
	C296.153717,22.814367 299.086823,22.956177 301.139893,23.791773 
	C407.975281,67.273499 480.874969,143.400803 520.116699,251.818878 
	C520.556030,253.032639 520.870422,254.291641 521.371521,255.955902 
	C517.640320,255.955902 514.345093,255.955902 510.605286,255.882477 
z"/>
<path fill="#F8FAFB" opacity="1.000000" stroke="none" 
	d="
M553.588013,315.229004 
	C550.069458,328.678986 542.011414,336.497803 528.285217,337.335114 
	C520.004456,337.840271 511.679596,337.665894 503.374176,337.698792 
	C500.805969,337.708954 499.060669,336.963776 499.114471,333.631317 
	C499.364044,318.169464 499.392151,302.703827 499.464478,287.239380 
	C499.495392,280.629364 499.787720,280.194153 506.465302,280.179718 
	C512.944702,280.165680 519.440247,280.138214 525.901550,280.546478 
	C546.181763,281.827820 555.495422,293.400452 553.588013,315.229004 
M537.445007,310.291687 
	C537.878723,304.915405 537.318054,299.480743 532.216125,296.752869 
	C528.780090,294.915741 524.418091,294.687836 520.420044,294.059875 
	C516.553162,293.452515 515.187195,295.296021 515.424316,299.255432 
	C515.779846,305.191437 515.522400,311.162415 515.605591,317.117432 
	C515.634888,319.217957 515.899292,321.315216 516.048584,323.310211 
	C529.536865,325.100159 535.682007,321.489044 537.445007,310.291687 
z"/>
<path fill="#F9FAFB" opacity="1.000000" stroke="none" 
	d="
M151.839203,301.692871 
	C150.981506,309.182251 147.099930,313.993378 140.050781,317.109070 
	C144.985489,323.768616 149.733887,330.176727 155.359512,337.768677 
	C148.631760,337.768677 143.076675,337.932190 137.546768,337.631989 
	C136.428146,337.571259 135.219086,335.892059 134.371033,334.726654 
	C131.438629,330.696991 128.870758,326.380035 125.707100,322.549957 
	C124.144043,320.657684 121.581062,319.591339 119.470520,318.151306 
	C119.035828,318.494934 118.601135,318.838593 118.166443,319.182220 
	C118.166443,325.197052 118.166443,331.211884 118.166443,337.792664 
	C113.165321,337.792664 108.700676,338.068634 104.313148,337.608795 
	C103.139481,337.485809 101.300018,335.120911 101.292076,333.776245 
	C101.194160,317.192780 101.382423,300.607697 101.488472,284.022919 
	C101.504807,281.467773 102.372086,280.023468 105.316345,280.113342 
	C114.612343,280.397064 123.943176,280.097290 133.205902,280.772583 
	C144.934708,281.627716 151.779938,289.537567 151.839203,301.692871 
M132.052765,294.073334 
	C127.419731,293.795868 122.786705,293.518402 118.196228,293.243469 
	C118.196228,298.412079 118.196228,302.317505 118.196228,306.987335 
	C121.478722,306.987335 124.503647,307.439911 127.313499,306.856567 
	C129.977127,306.303589 134.041870,305.150574 134.567703,303.389008 
	C135.336945,300.812164 133.497345,297.456573 132.052765,294.073334 
z"/>
<path fill="#F8FAFB" opacity="1.000000" stroke="none" 
	d="
M346.473541,324.931152 
	C346.472626,316.170166 346.472626,316.170166 338.008484,316.182526 
	C326.877869,316.198761 326.877319,316.198730 326.234863,327.286469 
	C326.205994,327.784729 326.228149,328.286774 326.183258,328.783142 
	C325.914612,331.753967 326.066589,337.153046 325.284698,337.292480 
	C320.800476,338.092285 316.088409,337.741150 311.468536,337.497681 
	C310.878906,337.466583 309.907227,335.790588 309.902374,334.872467 
	C309.808838,317.085052 309.833038,299.297028 309.833038,280.565155 
	C314.895905,280.565155 319.644928,280.355499 324.341156,280.759430 
	C325.180878,280.831696 326.366882,283.422333 326.420044,284.885468 
	C326.588837,289.531982 326.393951,294.200317 326.149048,298.850159 
	C325.995209,301.770874 327.213318,302.615662 329.992065,302.442749 
	C333.965729,302.195526 338.002258,301.900543 341.933411,302.335663 
	C345.622101,302.743896 346.797180,301.278900 346.800751,298.022156 
	C346.806946,292.380951 346.802460,286.739746 346.802460,280.489288 
	C351.533203,280.489288 355.849121,280.254395 360.105286,280.654694 
	C361.167297,280.754608 362.859344,282.895294 362.870361,284.110596 
	C363.020874,300.724701 363.000336,317.342133 362.752136,333.954712 
	C362.732544,335.265076 360.831543,337.509033 359.599609,337.661652 
	C355.701965,338.144470 351.706787,337.839966 346.473511,337.839966 
	C346.473511,333.544250 346.473511,329.478302 346.473541,324.931152 
z"/>
<path fill="#F7F9FA" opacity="1.000000" stroke="none" 
	d="
M373.984619,324.836121 
	C373.982849,311.223145 374.083130,298.071167 373.910309,284.922821 
	C373.861450,281.204681 375.042633,280.053070 378.804565,280.133575 
	C390.439148,280.382507 402.086212,280.425842 413.719330,280.156281 
	C417.600525,280.066315 418.693390,281.335876 418.565216,284.976715 
	C418.229004,294.527893 418.324097,294.531250 408.548553,294.531250 
	C405.549652,294.531250 402.550751,294.531128 399.551849,294.531097 
	C396.594666,294.531067 393.637451,294.531067 390.267517,294.531067 
	C390.267517,297.007751 390.267517,299.379883 390.267517,301.993988 
	C397.297302,301.993988 404.228699,301.859558 411.148621,302.082306 
	C413.033142,302.142944 416.387695,303.101379 416.488281,303.952606 
	C416.923309,307.633148 416.451630,311.431122 416.129761,315.170837 
	C416.105164,315.457062 414.679199,315.817932 413.906586,315.813293 
	C408.436188,315.780457 402.958649,315.811798 397.498047,315.533936 
	C389.495361,315.126678 389.454987,315.071259 390.157257,323.812500 
	C399.655548,323.812500 409.220612,323.812500 419.302917,323.812500 
	C419.302917,328.585510 419.302917,332.783173 419.302917,337.497009 
	C404.044952,337.497009 389.328766,337.497009 373.983124,337.497009 
	C373.983124,333.439087 373.983124,329.368835 373.984619,324.836121 
z"/>
<path fill="#FAFCFC" opacity="1.000000" stroke="none" 
	d="
M190.800308,328.176331 
	C188.163528,328.155273 185.977188,328.325226 183.839966,328.075256 
	C178.619385,327.464630 174.906036,328.555542 173.800613,334.608643 
	C173.560455,335.923737 170.879532,337.310425 169.109955,337.701660 
	C166.742462,338.225098 164.161453,337.693665 161.682816,337.821869 
	C156.294724,338.100525 155.585403,337.255096 157.726028,332.342926 
	C162.235229,321.995575 166.832840,311.686676 171.414413,301.370972 
	C173.907471,295.757782 176.585663,290.221283 178.895187,284.534424 
	C179.992996,281.831207 181.503632,280.910675 184.435623,280.722137 
	C196.869812,279.922638 197.031479,279.721588 202.130295,290.828461 
	C208.427444,304.545715 214.418411,318.403717 220.506546,332.216370 
	C221.151184,333.678955 221.560318,335.245361 222.484665,337.952576 
	C216.682114,337.952576 211.644699,338.054626 206.620819,337.840057 
	C205.886292,337.808685 204.700760,336.326691 204.598465,335.417542 
	C203.833466,328.617981 198.969330,328.198212 193.770737,328.180573 
	C192.938187,328.177765 192.105652,328.177673 190.800308,328.176331 
M184.674362,307.234039 
	C183.964935,309.328613 183.255524,311.423157 182.327362,314.163544 
	C187.029617,314.163544 190.930054,314.163544 195.544205,314.163544 
	C193.571350,308.520752 191.874222,303.666595 190.177094,298.812469 
	C189.487869,298.879211 188.798645,298.945984 188.109421,299.012726 
	C187.051804,301.504944 185.994186,303.997131 184.674362,307.234039 
z"/>
<path fill="#FAFCFC" opacity="1.000000" stroke="none" 
	d="
M452.198547,328.090820 
	C446.987152,327.284698 444.198944,329.258240 443.351898,333.985077 
	C442.754242,337.320068 440.608795,338.105011 437.519806,337.854462 
	C434.889191,337.641113 432.214417,337.679047 429.579803,337.878265 
	C425.790527,338.164764 425.125702,336.419861 426.432709,333.367767 
	C429.239685,326.812866 432.104553,320.282288 435.001556,313.766571 
	C439.383087,303.912018 443.675446,294.012695 448.356995,284.301758 
	C449.130127,282.698059 451.613464,281.136719 453.446991,280.952148 
	C466.189575,279.669403 466.314240,279.736389 471.473602,291.088348 
	C477.510834,304.371918 483.336182,317.751923 489.225098,331.102570 
	C490.013336,332.889465 490.635681,334.749542 491.846710,337.912994 
	C485.806152,337.912994 480.624634,338.154694 475.504364,337.702545 
	C474.518097,337.615448 473.382965,334.899017 472.995392,333.237213 
	C472.165985,329.680878 470.059998,328.468658 466.614624,328.476898 
	C461.965302,328.487976 457.315308,328.222504 452.198547,328.090820 
M461.657166,304.893921 
	C460.757965,302.921722 459.858765,300.949524 458.959564,298.977325 
	C458.365753,298.963959 457.771942,298.950592 457.178131,298.937225 
	C455.261902,303.780914 453.345642,308.624603 451.128723,314.228333 
	C456.190643,314.228333 460.006958,314.228333 464.482697,314.228333 
	C463.502991,310.944611 462.710754,308.289307 461.657166,304.893921 
z"/>
<path fill="#F7F9FA" opacity="1.000000" stroke="none" 
	d="
M92.166275,280.732727 
	C92.831039,284.860748 93.206604,288.856171 93.176384,292.848541 
	C93.172134,293.409790 91.216362,294.333710 90.104973,294.433502 
	C87.481400,294.669098 84.718941,294.972900 82.199310,294.411438 
	C77.107582,293.276825 76.783089,296.014404 76.814354,299.841949 
	C76.915924,312.275024 76.852348,324.709442 76.852348,337.574219 
	C71.646484,337.574219 66.455627,337.574219 60.541714,337.574219 
	C60.541714,323.238556 60.541714,309.035309 60.541714,294.260620 
	C54.777245,294.260620 49.713039,294.260620 43.839451,294.260620 
	C43.839451,290.279388 43.598202,286.828308 43.981468,283.448029 
	C44.101757,282.387115 45.892181,280.694397 46.933777,280.682709 
	C61.870243,280.515045 76.809387,280.585785 92.166275,280.732727 
z"/>
<path fill="#F8FAFB" opacity="1.000000" stroke="none" 
	d="
M257.483582,324.923004 
	C257.446503,311.693237 257.669250,298.885315 257.230774,286.100067 
	C257.072571,281.486694 258.446716,280.118988 262.770081,280.438110 
	C266.352875,280.702545 269.970734,280.492188 273.885681,280.492188 
	C273.885681,295.275208 273.885681,309.338348 273.885681,323.843628 
	C283.064941,323.843628 291.917877,323.843628 301.187531,323.843628 
	C301.187531,325.765045 301.072815,327.251099 301.205688,328.714661 
	C302.274261,340.484283 300.884064,337.800873 292.247009,337.832916 
	C282.611053,337.868652 272.967590,337.651764 263.342133,337.978333 
	C258.905151,338.128845 256.641998,337.385803 257.647858,332.302155 
	C258.086792,330.083801 257.566681,327.675720 257.483582,324.923004 
z"/>
<path fill="#F3F6F8" opacity="1.000000" stroke="none" 
	d="
M246.639832,328.837524 
	C246.444641,332.086395 246.303009,334.859375 246.149582,337.863129 
	C243.803284,337.863129 241.995392,337.885345 240.188202,337.859406 
	C230.290573,337.717224 230.192612,337.713745 230.135132,327.547485 
	C230.047791,312.098846 230.112305,296.649384 230.112305,280.826904 
	C235.417679,280.826904 240.511658,280.826904 246.693359,280.826904 
	C246.693359,296.602356 246.693359,312.481995 246.639832,328.837524 
z"/>
<path fill="#1C99D5" opacity="1.000000" stroke="none" 
	d="
M292.788086,144.188828 
	C281.516815,146.763779 275.143158,143.554352 269.410675,132.734863 
	C258.588715,133.040298 251.661606,129.338715 249.232300,121.952301 
	C246.594833,113.933044 249.163422,107.355026 257.541901,101.211113 
	C254.323471,90.559753 254.964981,80.774025 266.305115,74.932266 
	C274.940704,70.483704 282.572662,72.630013 291.451141,81.571442 
	C292.818451,80.590530 294.229919,79.550476 295.668945,78.550079 
	C303.562561,73.062469 312.994995,74.070412 318.824646,81.608383 
	C321.205536,84.686974 323.194672,85.151985 326.733398,84.041855 
	C335.263397,81.365883 343.656067,84.546593 349.629913,92.168671 
	C354.253204,98.067589 354.907776,108.467476 351.086517,115.312187 
	C346.730713,123.114449 338.464508,127.410332 329.888214,126.514282 
	C328.574768,126.377052 326.539825,126.527061 325.924957,127.352982 
	C320.216614,135.020508 313.056458,136.839371 305.539093,133.533066 
	C301.017273,137.385895 297.096802,140.726318 292.788086,144.188828 
z"/>
<path fill="#D1D2D4" opacity="1.000000" stroke="none" 
	d="
M165.029114,184.984802 
	C176.117203,166.347427 187.205292,147.710037 198.859695,128.120758 
	C212.241989,145.345764 225.024017,161.798126 237.664413,178.735474 
	C235.696701,180.649994 233.509613,181.795456 232.116592,183.565765 
	C228.796646,187.784851 225.199707,187.027924 221.102722,185.079880 
	C216.916626,183.089462 212.666153,181.147949 208.267471,179.733627 
	C206.506241,179.167328 203.892883,179.445755 202.323593,180.408859 
	C196.395462,184.047073 190.526276,187.855087 185.052856,192.134003 
	C181.537643,194.882111 178.129776,196.321686 173.784470,195.148499 
	C173.784470,195.148499 173.875198,195.154816 173.893234,194.833771 
	C170.950546,191.336746 167.989822,188.160782 165.029114,184.984802 
z"/>
<path fill="#D1D2D4" opacity="1.000000" stroke="none" 
	d="
M352.895630,172.874481 
	C362.406708,158.552567 371.917755,144.230637 382.116791,128.872772 
	C393.796448,144.752838 404.749481,159.644958 415.595642,175.086151 
	C401.354462,184.285324 406.365814,183.848679 392.835052,175.183853 
	C392.696014,175.094833 392.558563,174.993835 392.446136,174.874207 
	C386.665253,168.724884 380.304962,168.286011 373.648041,173.244385 
	C366.767395,178.369370 360.072052,178.280411 353.332886,173.111404 
	C353.203003,173.011780 353.042084,172.952560 352.895630,172.874481 
z"/>
<path fill="#D0D2D4" opacity="1.000000" stroke="none" 
	d="
M267.987183,188.039062 
	C275.159119,181.420761 282.331055,174.802414 290.142395,167.594009 
	C296.512512,175.254150 303.644318,183.830200 310.730530,193.001221 
	C305.906860,198.533966 300.959625,201.038574 294.233490,196.465790 
	C292.232422,195.105347 288.333191,194.680801 286.207001,195.704147 
	C279.502380,198.931183 274.895325,196.905930 270.913971,191.429153 
	C270.039185,190.225815 268.967926,189.165329 267.987183,188.039062 
z"/>
<path fill="#EDEDF1" opacity="1.000000" stroke="none" 
	d="
M352.680328,173.045990 
	C353.042084,172.952560 353.203003,173.011780 353.332886,173.111404 
	C360.072052,178.280411 366.767395,178.369370 373.648041,173.244385 
	C380.304962,168.286011 386.665253,168.724884 392.446136,174.874207 
	C392.558563,174.993835 392.696014,175.094833 392.835052,175.183853 
	C406.365814,183.848679 401.354462,184.285324 415.716064,175.408615 
	C416.314850,175.595474 416.686279,176.008926 417.102234,176.705597 
	C412.734985,179.619156 408.328552,184.277115 403.909943,184.288651 
	C399.793182,184.299438 395.194946,179.860886 391.645996,176.497406 
	C385.893524,171.045532 380.246246,170.605835 374.268250,175.341843 
	C366.828461,181.235931 359.736267,179.794220 352.229248,174.877167 
	C352.074036,174.233215 352.269531,173.725357 352.680328,173.045990 
z"/>
<path fill="#EDEDF1" opacity="1.000000" stroke="none" 
	d="
M173.942093,195.454590 
	C178.129776,196.321686 181.537643,194.882111 185.052856,192.134003 
	C190.526276,187.855087 196.395462,184.047073 202.323593,180.408859 
	C203.892883,179.445755 206.506241,179.167328 208.267471,179.733627 
	C212.666153,181.147949 216.916626,183.089462 221.102722,185.079880 
	C225.199707,187.027924 228.796646,187.784851 232.116592,183.565765 
	C233.509613,181.795456 235.696701,180.649994 237.818085,179.033386 
	C238.368576,179.265366 238.623749,179.684418 238.934387,180.353607 
	C231.537292,189.830322 222.929825,190.560104 213.463348,183.923553 
	C207.777374,179.937347 203.093155,181.440964 198.000824,185.460114 
	C191.780075,190.369858 184.976593,194.541260 177.994904,199.326828 
	C176.694229,198.136017 175.396973,196.948349 173.942093,195.454590 
z"/>
<path fill="#ECECF0" opacity="1.000000" stroke="none" 
	d="
M267.763733,188.118195 
	C268.967926,189.165329 270.039185,190.225815 270.913971,191.429153 
	C274.895325,196.905930 279.502380,198.931183 286.207001,195.704147 
	C288.333191,194.680801 292.232422,195.105347 294.233490,196.465790 
	C300.959625,201.038574 305.906860,198.533966 310.864746,193.312988 
	C311.599518,193.491516 312.154480,193.953232 312.816467,194.667908 
	C312.232086,195.370026 311.425262,195.707779 310.867157,196.285736 
	C305.368744,201.979324 299.643524,202.012451 292.831909,198.216187 
	C290.494751,196.913635 286.435394,197.692490 283.535004,198.649017 
	C279.335083,200.034134 276.113617,200.187973 273.177429,196.317108 
	C271.399872,193.973709 268.968872,192.126007 266.574829,189.843536 
	C266.725586,189.153427 267.132935,188.675385 267.763733,188.118195 
z"/>
<path fill="#EDEDF1" opacity="1.000000" stroke="none" 
	d="
M164.838470,185.157379 
	C167.989822,188.160782 170.950546,191.336746 173.881943,194.877823 
	C170.807220,192.518448 167.761810,189.793976 164.413452,186.914322 
	C164.289597,186.282745 164.468719,185.806335 164.838470,185.157379 
z"/>
<path fill="#03416E" opacity="1.000000" stroke="none" 
	d="
M537.368652,310.731384 
	C535.682007,321.489044 529.536865,325.100159 516.048584,323.310211 
	C515.899292,321.315216 515.634888,319.217957 515.605591,317.117432 
	C515.522400,311.162415 515.779846,305.191437 515.424316,299.255432 
	C515.187195,295.296021 516.553162,293.452515 520.420044,294.059875 
	C524.418091,294.687836 528.780090,294.915741 532.216125,296.752869 
	C537.318054,299.480743 537.878723,304.915405 537.368652,310.731384 
z"/>
<path fill="#0A4673" opacity="1.000000" stroke="none" 
	d="
M132.411194,294.253113 
	C133.497345,297.456573 135.336945,300.812164 134.567703,303.389008 
	C134.041870,305.150574 129.977127,306.303589 127.313499,306.856567 
	C124.503647,307.439911 121.478722,306.987335 118.196228,306.987335 
	C118.196228,302.317505 118.196228,298.412079 118.196228,293.243469 
	C122.786705,293.518402 127.419731,293.795868 132.411194,294.253113 
z"/>
<path fill="#124D77" opacity="1.000000" stroke="none" 
	d="
M184.805481,306.861694 
	C185.994186,303.997131 187.051804,301.504944 188.109421,299.012726 
	C188.798645,298.945984 189.487869,298.879211 190.177094,298.812469 
	C191.874222,303.666595 193.571350,308.520752 195.544205,314.163544 
	C190.930054,314.163544 187.029617,314.163544 182.327362,314.163544 
	C183.255524,311.423157 183.964935,309.328613 184.805481,306.861694 
z"/>
<path fill="#0E4A75" opacity="1.000000" stroke="none" 
	d="
M461.787842,305.263977 
	C462.710754,308.289307 463.502991,310.944611 464.482697,314.228333 
	C460.006958,314.228333 456.190643,314.228333 451.128723,314.228333 
	C453.345642,308.624603 455.261902,303.780914 457.178131,298.937225 
	C457.771942,298.950592 458.365753,298.963959 458.959564,298.977325 
	C459.858765,300.949524 460.757965,302.921722 461.787842,305.263977 
z"/>
</svg>