<?xml version="1.0" standalone="no"?>
<!DOCTYPE svg PUBLIC "-//W3C//DTD SVG 20010904//EN"
 "http://www.w3.org/TR/2001/REC-SVG-20010904/DTD/svg10.dtd">
<svg version="1.0" xmlns="http://www.w3.org/2000/svg"
 width="595.000000pt" height="521.000000pt" viewBox="0 0 595.000000 521.000000"
 preserveAspectRatio="xMidYMid meet">

<g transform="translate(0.000000,521.000000) scale(0.100000,-0.100000)"
fill="#000000" stroke="none">
<path d="M2850 5151 c-286 -104 -584 -261 -847 -448 -250 -177 -587 -493 -766
-717 -290 -366 -503 -752 -662 -1201 l-43 -120 -256 -3 c-141 -1 -256 -6 -256
-10 0 -5 34 -125 76 -267 l76 -259 -76 -261 c-42 -143 -76 -264 -76 -268 0 -4
67 -7 150 -7 l150 0 -8 -107 c-4 -60 -7 -268 -7 -463 l0 -355 170 -85 c519
-261 1215 -459 1880 -534 477 -55 1029 -45 1495 25 451 68 849 179 1339 373
142 57 376 166 439 205 l32 21 0 298 c0 262 -10 510 -25 595 l-4 27 154 0 c85
0 155 3 155 7 0 4 -34 125 -76 268 l-76 261 76 259 c42 142 76 262 76 267 0 4
-121 8 -269 8 l-269 0 -12 38 c-7 20 -41 111 -77 202 -370 941 -1025 1660
-1920 2109 -145 72 -371 169 -410 176 -17 3 -68 -10 -133 -34z m237 -202
c1012 -440 1702 -1171 2097 -2221 l25 -68 -233 0 -234 0 -287 395 c-158 217
-290 393 -294 391 -3 -1 -34 -20 -68 -41 l-63 -38 -52 36 c-29 19 -76 52 -104
72 l-52 36 -95 -47 -95 -47 -62 26 c-34 15 -63 27 -65 27 -3 0 -59 -81 -126
-181 -67 -99 -124 -177 -128 -172 -4 4 -31 37 -61 73 -30 36 -57 69 -61 73 -4
5 -32 -8 -62 -28 l-55 -37 -62 28 c-61 27 -61 27 -114 11 -29 -10 -59 -17 -67
-17 -7 0 -37 23 -66 52 l-53 52 -54 -53 -54 -53 -78 100 -78 100 -31 -25 c-16
-13 -44 -35 -61 -49 l-32 -25 -102 46 c-57 25 -107 45 -112 45 -5 0 -65 -38
-133 -85 -67 -47 -129 -87 -136 -90 -8 -3 -44 22 -82 57 -51 45 -71 58 -77 48
-5 -7 -97 -163 -206 -347 l-198 -333 -243 0 c-147 0 -243 4 -243 10 0 15 64
187 110 295 353 830 976 1495 1762 1880 115 56 337 151 365 155 1 0 55 -23
120 -51z m-2176 -2534 c16 -5 19 -16 19 -65 0 -36 -5 -62 -12 -67 -7 -4 -44
-8 -83 -8 l-70 0 -3 -218 -2 -218 -83 3 -82 3 4 65 c1 36 0 134 -4 218 l-7
152 -79 0 -79 0 0 63 c0 35 2 66 4 68 7 7 457 10 477 4z m490 -23 c80 -39 122
-127 105 -218 -5 -26 -22 -51 -58 -86 l-50 -49 70 -92 c39 -50 68 -95 65 -99
-2 -5 -44 -8 -92 -8 l-87 0 -65 93 c-51 73 -70 93 -92 95 l-27 3 0 -96 0 -96
-82 3 -83 3 -1 270 c-1 149 1 278 3 288 5 18 16 19 176 15 155 -3 177 -5 218
-26z m532 22 c41 -7 39 -4 119 -194 22 -52 66 -152 99 -222 32 -69 59 -133 59
-142 0 -13 -14 -16 -84 -16 l-84 0 -14 42 c-13 38 -19 44 -54 50 -21 4 -78 7
-126 7 l-88 1 -22 -47 -23 -48 -74 -3 c-41 -2 -78 1 -84 7 -6 6 27 89 88 228
54 120 109 244 123 275 21 49 29 57 56 61 55 7 70 7 109 1z m521 -10 c9 -24 7
-537 -3 -552 -5 -9 -29 -12 -82 -10 l-74 3 -3 275 c-1 151 0 280 3 287 7 21
151 18 159 -3z m274 -209 l2 -217 133 3 132 3 9 -57 c14 -93 27 -88 -220 -85
l-216 3 -3 280 c-2 189 0 282 7 286 6 4 43 6 82 4 l71 -3 3 -217z m519 213 c9
-7 10 -37 6 -109 l-6 -99 101 0 c56 0 103 1 103 3 1 1 4 49 8 107 l6 105 75 0
75 0 0 -285 0 -285 -76 -3 -76 -3 -7 38 c-3 21 -6 71 -6 111 l0 72 -95 0 -95
0 -2 -57 c-1 -32 -2 -80 -2 -108 l-1 -50 -80 0 -80 0 -3 279 c-1 190 1 282 8
286 17 11 134 9 147 -2z m930 -53 c1 -33 -3 -65 -10 -73 -9 -11 -39 -13 -142
-10 l-130 3 -3 -37 -3 -37 133 -3 133 -3 0 -65 0 -65 -40 -2 c-22 -1 -82 -2
-132 -2 l-93 -1 0 -40 0 -39 148 -3 147 -3 3 -44 c2 -25 1 -55 -3 -68 l-5 -23
-225 0 -225 0 -1 23 c-3 69 3 542 7 548 2 4 102 7 222 6 l217 -2 2 -60z m446
58 c43 -7 35 7 147 -253 32 -74 74 -169 94 -210 53 -109 52 -110 -45 -110
l-80 0 -20 44 c-19 44 -19 44 -82 51 -34 4 -91 5 -127 3 l-65 -3 -16 -45 -17
-45 -81 -3 c-76 -3 -81 -1 -81 17 0 12 39 107 86 213 47 106 100 225 117 265
27 64 34 72 61 76 55 7 70 7 109 0z m754 -24 c72 -35 117 -86 136 -155 35
-125 12 -236 -65 -311 -67 -65 -101 -76 -270 -81 -81 -2 -159 -2 -173 2 l-25
7 3 275 c2 227 5 277 17 285 9 6 79 8 173 5 137 -4 163 -7 204 -27z m77 -861
c23 -218 35 -677 20 -734 -6 -24 -177 -106 -437 -211 -1011 -405 -2105 -496
-3212 -266 -423 88 -872 235 -1214 399 l-134 64 7 328 c3 180 9 362 12 405 l7
77 2472 0 2473 0 6 -62z"/>
<path d="M1192 2283 c-21 -4 -23 -9 -20 -66 l3 -62 58 -3 c75 -4 107 14 107
61 0 50 -18 67 -75 71 -27 3 -60 2 -73 -1z"/>
<path d="M1867 2209 c-19 -30 -51 -118 -46 -124 7 -6 108 -9 114 -4 6 6 -34
130 -45 143 -5 4 -15 -2 -23 -15z"/>
<path d="M4563 2217 c-13 -17 -57 -127 -52 -131 10 -8 110 -12 115 -4 6 10
-34 135 -46 143 -4 3 -12 -1 -17 -8z"/>
<path d="M5153 2266 c-4 -8 -6 -74 -3 -148 l5 -133 60 4 c108 6 145 44 145
149 0 68 -22 106 -76 128 -44 19 -121 18 -131 0z"/>
</g>
</svg>
