<?xml version="1.0" standalone="no"?>
<!DOCTYPE svg PUBLIC "-//W3C//DTD SVG 20010904//EN"
 "http://www.w3.org/TR/2001/REC-SVG-20010904/DTD/svg10.dtd">
<svg version="1.0" xmlns="http://www.w3.org/2000/svg"
 width="600.000000pt" height="600.000000pt" viewBox="0 0 600.000000 600.000000"
 preserveAspectRatio="xMidYMid meet">

<g transform="translate(0.000000,600.000000) scale(0.100000,-0.100000)"
fill="#000000" stroke="none">
<path d="M3055 5605 c-26 -8 -39 -18 -37 -27 1 -10 -7 -14 -32 -14 -19 1 -34
5 -33 9 1 5 -13 10 -30 12 -28 2 -33 0 -33 -20 0 -18 -10 -26 -51 -39 -58 -19
-80 -10 -46 19 12 10 24 18 27 16 2 -1 6 2 8 8 7 21 -37 11 -67 -15 -17 -14
-37 -27 -43 -28 -23 -4 -128 -78 -122 -87 3 -5 1 -9 -4 -9 -4 0 -18 -9 -31
-21 -17 -16 -19 -24 -11 -34 9 -11 6 -13 -17 -10 -37 5 -98 -25 -97 -48 1 -12
-6 -17 -22 -17 -24 0 -73 -38 -186 -144 -37 -35 -68 -62 -70 -61 -2 2 -16 -15
-32 -37 l-29 -40 26 17 c15 9 27 13 27 9 0 -5 5 -1 11 9 6 9 15 15 20 11 5 -3
16 0 24 6 9 7 15 8 15 2 0 -14 -21 -28 -52 -36 -32 -7 -88 -53 -88 -71 0 -8
-8 -22 -18 -32 -36 -36 -70 -89 -76 -121 -4 -17 -28 -61 -52 -97 -58 -84 -111
-190 -123 -247 -6 -24 -24 -83 -41 -130 -29 -82 -37 -156 -24 -203 3 -11 23
-32 45 -47 39 -28 52 -58 24 -58 -7 0 -19 8 -24 18 -9 15 -12 15 -21 2 -6 -10
-10 -11 -10 -2 0 6 -9 12 -20 12 -12 0 -28 13 -40 33 -20 31 -20 32 -20 6 0
-39 76 -129 108 -129 12 0 35 -65 30 -82 -2 -6 -13 -12 -24 -13 -44 -4 -164
-40 -164 -50 0 -5 18 -21 39 -34 31 -19 37 -28 33 -48 -3 -14 -10 -22 -17 -19
-22 8 -25 -5 -7 -33 16 -25 16 -25 -1 -12 -22 17 -27 12 -16 -16 8 -21 78 -73
98 -73 11 0 41 -45 41 -63 0 -8 9 -22 19 -31 15 -13 17 -24 11 -44 -5 -19 -3
-31 7 -40 8 -8 11 -22 8 -31 -3 -10 -1 -30 4 -45 8 -21 8 -26 -4 -26 -24 0
-43 42 -41 88 2 27 -1 41 -7 39 -16 -5 -18 -68 -4 -109 7 -19 29 -49 50 -67
20 -18 37 -39 37 -46 0 -7 17 -23 37 -36 29 -17 34 -24 21 -27 -24 -5 -23 -22
1 -22 17 0 19 -5 15 -40 -4 -31 -1 -40 11 -40 18 0 19 -8 2 -29 -16 -19 -117
-275 -117 -296 0 -8 -3 -15 -7 -15 -5 0 -16 -20 -26 -45 -11 -25 -23 -42 -28
-39 -5 3 -9 -1 -9 -8 0 -9 -3 -10 -8 -2 -4 7 -21 9 -40 7 -28 -5 -31 -7 -20
-22 8 -11 5 -10 -10 3 -22 19 -22 19 -22 -1 0 -23 -26 -39 -33 -20 -5 16 -57
-19 -57 -38 0 -8 -8 -15 -19 -15 -10 0 -24 -7 -31 -15 -12 -14 -94 -55 -110
-55 -5 0 -30 -10 -57 -22 -26 -12 -50 -22 -53 -22 -3 -1 -11 -5 -17 -9 -7 -5
-18 -5 -23 -2 -6 3 -13 0 -16 -8 -3 -8 -13 -13 -22 -10 -10 2 -34 -7 -55 -21
-21 -14 -51 -33 -67 -41 -17 -9 -30 -21 -30 -28 0 -6 -12 -13 -26 -14 -14 0
-40 -14 -57 -30 -18 -16 -44 -37 -59 -46 -30 -19 -112 -133 -100 -140 4 -2 2
-3 -5 -1 -16 4 -36 -22 -72 -96 -61 -126 -73 -235 -57 -513 l9 -148 35 -47
c20 -26 79 -96 131 -156 321 -366 780 -660 1261 -810 226 -70 559 -127 727
-125 77 2 81 3 70 20 -7 11 -19 19 -27 20 -10 0 -8 3 5 9 19 7 19 8 -5 18 -15
6 -34 6 -49 0 -13 -5 -26 -6 -29 -4 -3 3 3 8 12 12 10 4 14 13 11 23 -4 14 1
16 29 13 30 -3 36 -10 51 -48 27 -72 31 -73 153 -68 59 3 145 9 192 14 113 11
324 51 313 59 -4 3 -9 22 -11 41 -2 19 -12 62 -22 95 -10 33 -21 73 -24 88 -6
23 -10 27 -29 22 -21 -7 -21 -6 -3 7 20 16 19 21 -19 128 -7 19 -13 37 -12 40
1 16 -16 49 -23 45 -5 -3 -11 -1 -15 5 -3 5 -1 10 4 10 6 0 11 7 11 15 0 8 -4
15 -10 15 -5 0 -9 3 -9 8 3 19 -3 22 -21 12 -11 -6 -20 -7 -20 -1 0 5 7 11 15
15 18 6 20 36 3 36 -9 0 -9 3 -1 11 8 8 7 20 -7 43 -10 18 -21 48 -25 67 -4
19 -12 43 -18 54 -6 11 -10 23 -9 27 1 5 -6 8 -16 9 -9 0 -12 3 -5 5 8 4 7 11
-5 25 -20 23 -37 25 -28 4 3 -9 0 -15 -10 -15 -8 0 -12 -4 -9 -10 3 -5 0 -7
-8 -4 -8 3 -31 -11 -53 -33 -37 -36 -38 -38 -16 -41 l23 -4 -21 -18 c-19 -16
-24 -17 -36 -5 -8 8 -11 21 -7 31 5 13 3 16 -10 11 -12 -5 -17 -1 -17 12 0 11
-6 22 -12 24 -9 4 -9 6 -1 6 6 1 9 10 6 22 -3 11 -11 18 -18 15 -8 -3 -10 4
-7 20 2 14 0 24 -7 24 -7 0 -9 -5 -5 -12 4 -7 3 -8 -4 -4 -6 4 -8 14 -5 23 4
10 2 14 -5 9 -6 -3 -13 -2 -17 4 -9 14 18 13 33 -2 9 -9 15 -9 23 -1 8 8 5 13
-10 18 -13 4 -18 11 -14 18 4 8 1 8 -9 -1 -13 -10 -17 -10 -22 3 -3 8 -12 15
-21 15 -9 0 -18 12 -22 31 -3 17 -17 37 -30 46 -13 9 -21 18 -19 21 3 2 1 13
-4 23 -8 14 -6 21 11 29 11 7 18 14 16 17 -3 2 -14 0 -24 -5 -25 -14 -61 7
-57 33 1 10 -2 25 -8 32 -5 7 -7 21 -4 30 6 15 8 15 16 3 6 -9 5 -17 -3 -22
-8 -5 -6 -8 6 -8 10 0 15 -5 12 -10 -5 -9 22 -15 50 -11 6 1 1 -5 -9 -14 -18
-14 -17 -14 12 -12 16 1 28 5 25 10 -2 4 2 7 10 7 8 0 18 7 21 16 3 8 11 12
17 8 8 -4 7 -9 -2 -15 -10 -6 -6 -9 12 -9 18 0 28 -6 32 -20 3 -13 0 -20 -10
-20 -8 0 -11 -5 -7 -12 5 -7 2 -9 -9 -5 -9 3 -18 -1 -22 -11 -5 -13 -8 -14
-15 -3 -4 8 -6 20 -3 28 3 7 0 13 -7 13 -8 0 -11 -9 -8 -25 4 -16 1 -25 -8
-25 -7 0 -16 -5 -20 -12 -4 -6 -3 -8 4 -4 5 3 13 0 15 -6 4 -10 8 -9 17 2 10
12 11 11 7 -7 -7 -32 7 -37 23 -8 22 42 39 37 19 -5 -21 -44 -24 -60 -9 -60
10 0 14 14 11 39 -2 7 2 10 9 6 7 -4 10 -16 7 -26 -3 -10 0 -17 6 -16 6 1 13
-8 15 -20 2 -13 8 -23 13 -23 11 0 11 3 -1 34 -12 33 7 36 20 4 5 -13 9 -17 9
-9 1 11 5 10 17 -5 14 -17 15 -17 10 -1 -4 13 -2 16 7 10 6 -4 23 -7 37 -6 19
1 20 0 5 -4 -11 -3 -27 -14 -36 -24 -9 -11 -25 -19 -36 -19 -11 0 -25 -11 -31
-25 -16 -34 -15 -35 8 -35 13 0 18 5 14 15 -4 10 0 15 15 15 27 0 27 -15 -1
-34 -22 -16 -22 -16 12 -17 19 0 29 -3 23 -6 -7 -2 -13 -12 -13 -20 0 -9 -6
-13 -15 -9 -8 3 -15 1 -15 -4 0 -6 12 -10 26 -10 14 0 23 4 19 10 -3 6 1 10 9
10 10 0 13 6 10 15 -4 10 -2 13 8 10 18 -7 64 28 71 55 4 15 0 20 -16 20 -12
0 -17 4 -12 8 6 4 11 21 12 37 2 25 1 27 -6 10 -5 -11 -10 -14 -10 -7 -1 16
-31 48 -31 33 0 -6 -7 -11 -15 -11 -10 0 -7 7 10 24 27 27 25 68 -3 59 -13 -3
-14 -2 -4 4 15 12 5 43 -14 43 -8 0 -14 -4 -14 -10 0 -5 -6 -10 -12 -10 -7 1
-2 10 11 20 18 15 19 20 7 20 -9 0 -16 -4 -16 -10 0 -5 -9 -10 -20 -10 -11 0
-20 7 -20 15 0 8 5 15 11 15 5 0 7 5 4 10 -3 6 3 10 14 10 12 0 21 5 21 10 0
6 -5 10 -11 10 -5 0 -7 5 -4 10 4 6 -5 10 -19 10 -16 0 -26 6 -26 15 0 8 5 15
10 15 14 0 13 20 -2 53 -13 27 -28 36 -28 16 0 -8 -6 -7 -16 2 -15 12 -16 11
-9 -10 5 -16 4 -21 -4 -17 -7 5 -11 -2 -11 -16 0 -19 -2 -20 -11 -8 -9 12 -10
12 -5 -3 3 -10 6 -23 6 -29 0 -6 10 -3 22 8 21 18 16 3 -6 -22 -11 -12 -56 -6
-56 7 0 5 6 7 13 5 6 -1 9 -1 4 1 -4 3 -4 10 0 16 4 7 0 6 -10 -1 -9 -8 -19
-22 -22 -32 -7 -21 -37 -31 -56 -19 -10 6 -5 9 16 10 17 1 22 3 13 6 -10 2
-18 8 -18 13 0 4 10 6 22 2 14 -3 19 -2 14 6 -4 7 -2 12 3 12 18 0 12 18 -6
24 -10 3 -7 4 8 2 32 -3 49 15 42 45 -5 24 -5 24 11 4 10 -11 15 -15 12 -8 -4
6 6 21 21 32 20 17 24 24 15 33 -9 9 -12 8 -12 -4 0 -9 -7 -19 -16 -22 -21 -8
-24 -8 -24 4 0 6 7 10 15 10 8 0 15 4 15 10 0 5 -8 6 -17 3 -17 -6 -17 -6 0
11 17 17 17 19 1 31 -11 8 -15 21 -12 39 4 19 0 31 -14 40 -10 7 -18 18 -16
24 2 5 0 10 -4 11 -24 3 -30 -1 -25 -19 3 -13 0 -20 -9 -20 -7 0 -11 6 -8 14
3 8 -2 16 -13 19 -14 4 -14 5 -2 6 16 1 45 51 30 51 -5 0 -14 14 -20 30 -5 17
-15 30 -20 30 -6 0 -8 7 -5 15 4 10 0 15 -11 15 -9 0 -13 5 -10 10 3 6 -1 10
-10 10 -8 0 -18 7 -22 16 -5 13 -7 13 -14 2 -7 -10 -9 -9 -9 5 0 11 8 17 23
18 17 1 18 2 4 6 -9 2 -15 8 -12 12 2 5 -3 17 -11 27 -9 10 -13 13 -9 7 3 -7
1 -13 -5 -13 -7 0 -9 12 -6 30 2 17 -1 33 -8 37 -6 5 -17 19 -24 33 -7 14 -11
18 -8 8 3 -9 -1 -23 -7 -32 -11 -14 -12 -14 -13 6 -2 27 -5 39 -23 91 -9 26
-18 37 -27 33 -9 -3 -14 2 -14 14 0 15 -7 20 -26 20 -23 0 -24 1 -9 16 18 19
15 50 -4 46 -7 -1 -11 3 -8 10 2 7 -6 22 -17 33 -23 21 -26 27 -26 48 0 7 -11
24 -25 39 -14 15 -25 31 -25 37 0 8 -33 53 -96 131 -7 8 -29 35 -49 60 -58 71
-215 228 -277 277 -53 42 -56 46 -40 63 9 10 22 25 27 32 11 13 45 143 45 169
0 8 7 27 15 42 15 29 28 197 16 197 -4 0 -5 15 -3 33 2 17 3 73 3 123 -1 87 0
92 24 108 14 9 25 13 25 9 0 -5 5 0 11 10 7 12 7 29 -2 55 -17 53 -22 56 -74
42 -39 -11 -51 -10 -89 4 -48 18 -110 79 -127 124 -6 15 -23 104 -39 198 -30
178 -29 218 4 269 9 14 23 25 31 25 13 0 13 -4 -1 -32 -16 -30 -16 -32 -1 -19
23 19 65 6 79 -24 9 -21 14 -23 27 -13 9 7 13 8 9 4 -8 -9 26 -63 52 -83 13
-10 12 -14 -11 -35 -36 -33 -60 -74 -53 -92 4 -12 20 -16 56 -16 49 0 49 0 44
-30 -2 -16 0 -32 5 -36 5 -3 9 -2 9 3 1 19 18 33 33 27 28 -10 19 -46 -20 -86
l-37 -38 27 0 c17 0 27 5 27 15 0 8 8 15 19 15 16 0 18 -6 14 -47 l-5 -48 41
40 c23 22 39 45 37 52 -6 15 22 73 36 73 5 0 8 -7 4 -15 -4 -12 -2 -13 14 -3
10 7 21 20 23 30 6 23 27 23 27 1 1 -10 12 6 26 36 14 30 23 60 20 68 -3 8 -2
12 3 9 5 -3 11 8 15 25 3 17 21 63 40 102 19 40 42 97 51 127 9 30 39 94 66
142 27 49 49 90 49 93 0 2 19 23 43 45 23 24 32 37 20 31 -12 -6 -25 -11 -30
-11 -15 0 139 138 168 150 16 7 26 16 24 21 -8 12 69 49 109 51 19 2 32 7 29
12 -8 12 126 1 139 -12 7 -7 19 -7 37 -1 14 6 28 10 31 9 2 -1 6 3 8 8 2 6 -6
8 -18 5 -16 -4 -19 -2 -14 11 3 9 10 13 15 10 5 -3 22 3 39 12 31 19 56 11 29
-9 -9 -7 -14 -17 -12 -24 2 -6 -4 -14 -14 -16 -10 -3 0 -3 22 0 45 5 105 30
105 42 0 4 25 21 56 37 l55 29 31 -35 c16 -19 27 -28 23 -20 -4 10 -1 9 8 -2
8 -10 19 -18 25 -18 6 0 18 -10 27 -22 8 -13 31 -35 50 -49 41 -31 81 -83 143
-189 25 -41 61 -91 82 -111 54 -53 64 -138 34 -298 -24 -122 -20 -114 -46 -97
-18 11 -47 14 -123 11 -55 -3 -121 -5 -147 -5 -43 -1 -49 -4 -54 -27 -16 -61
16 -183 47 -183 6 0 7 5 4 10 -11 17 22 22 61 10 36 -12 39 -11 60 15 26 33
43 26 42 -17 -1 -19 6 -36 16 -44 16 -12 16 -13 -1 -23 -11 -6 -13 -11 -5 -11
7 0 10 -5 7 -10 -8 -12 -65 -6 -107 11 -30 12 -39 32 -10 23 13 -5 14 -4 3 4
-8 6 -20 8 -27 5 -7 -2 -22 0 -33 7 -18 9 -21 8 -21 -9 0 -52 186 -122 204
-76 3 8 13 15 21 15 11 0 15 6 11 18 -4 12 3 27 19 42 14 14 25 33 24 45 -3
38 2 51 11 30 l8 -20 7 20 c22 64 43 102 74 132 19 18 38 33 42 33 15 0 91 75
104 105 26 53 33 122 23 213 -5 48 -14 91 -19 97 -5 5 -9 16 -9 25 0 9 -11 38
-24 65 -18 38 -21 54 -13 66 8 13 7 22 -3 34 -14 16 -19 42 -22 103 -1 34 -14
43 -21 15 -3 -11 -5 -7 -6 10 -1 16 -7 27 -15 27 -8 0 -16 7 -20 15 -4 11 1
15 17 15 16 0 18 -3 9 -9 -10 -6 -6 -11 17 -19 17 -6 31 -17 31 -25 0 -8 7
-20 15 -27 10 -8 15 -9 15 -2 0 25 -28 69 -67 107 -99 94 -114 107 -130 101
-11 -4 -14 -2 -9 9 10 26 -5 45 -35 45 -21 0 -27 4 -23 14 4 9 -8 24 -33 40
-21 14 -50 35 -65 46 -16 12 -28 19 -28 16 0 -4 -14 1 -31 9 -17 9 -33 14 -36
11 -3 -3 -13 -1 -22 3 -10 6 -23 4 -35 -4 -13 -10 -25 -11 -42 -5 -13 5 -24 6
-24 2 1 -14 50 -43 63 -36 9 5 9 3 -1 -7 -10 -11 -16 -11 -30 -1 -17 12 -23
15 -74 34 -34 12 -37 28 -5 21 18 -4 19 -3 7 6 -8 6 -22 8 -32 5 -9 -2 -19 0
-23 6 -3 5 -1 10 4 10 6 0 11 5 11 10 0 6 -13 10 -30 10 -17 0 -33 7 -39 18
-6 9 -11 13 -11 9 0 -9 -30 18 -30 27 0 3 13 4 30 3 16 -1 30 -5 30 -9 0 -5
12 -8 28 -8 21 0 24 2 12 10 -8 5 -15 15 -15 22 0 8 -15 12 -50 10 -42 -2 -47
0 -32 11 15 11 13 13 -25 23 -33 8 -42 15 -40 28 2 11 -1 15 -7 12 -6 -4 -20
-2 -31 4 -17 9 -19 8 -13 -7 5 -15 3 -16 -8 -5 -7 6 -33 13 -58 13 -43 1 -44
2 -16 10 30 8 30 8 -5 5 -19 -2 -44 -7 -54 -11 -14 -6 -17 -5 -12 3 5 8 2 10
-8 6 -9 -3 -14 -10 -11 -14 3 -5 -4 -6 -16 -3 -14 4 -39 -7 -80 -36 -33 -23
-64 -39 -71 -35 -7 4 -8 3 -4 -4 8 -14 -16 -14 -54 -2 l-25 8 28 1 c16 1 35 8
43 16 9 8 25 15 36 15 24 0 98 40 98 52 0 5 -4 7 -9 3 -5 -3 -12 -1 -15 4 -6
9 22 26 37 23 4 -1 7 4 7 11 0 9 3 8 9 -2 6 -10 19 -12 47 -6 27 5 34 9 24 15
-30 15 -66 17 -105 5z m-185 -114 c33 -10 32 -10 -16 -6 -28 2 -56 -1 -61 -6
-6 -6 -26 -9 -44 -6 -33 4 -33 4 6 6 40 2 40 2 15 16 -24 13 -23 14 20 10 25
-2 61 -9 80 -14z m-33 -27 c-3 -3 -12 -4 -19 -1 -8 3 -5 6 6 6 11 1 17 -2 13
-5z m59 -26 c4 -7 3 -8 -4 -4 -7 4 -12 2 -12 -4 0 -6 -5 -8 -10 -5 -11 7 -4
25 10 25 5 0 12 -5 16 -12z m-124 -8 c6 0 9 -3 6 -6 -3 -3 -34 -7 -68 -9 -34
-2 -58 1 -54 5 10 10 72 18 92 13 8 -1 19 -3 24 -3z m45 -6 c-3 -3 -12 -4 -19
-1 -8 3 -5 6 6 6 11 1 17 -2 13 -5z m-147 -34 c0 -5 -5 -10 -11 -10 -5 0 -7 5
-4 10 3 6 8 10 11 10 2 0 4 -4 4 -10z m-50 -20 c0 -5 -5 -10 -11 -10 -5 0 -7
5 -4 10 3 6 8 10 11 10 2 0 4 -4 4 -10z m36 -15 c-3 -8 0 -15 7 -15 19 -1 -22
-22 -70 -36 -24 -7 -43 -9 -43 -4 0 4 22 14 50 21 37 9 47 16 39 25 -7 8 -6
14 3 17 20 8 21 8 14 -8z m329 5 c15 -6 7 -9 -30 -8 -39 0 -45 2 -25 8 32 10
31 10 55 0z m-470 -51 c11 -16 1 -19 -13 -3 -7 8 -8 14 -3 14 5 0 13 -5 16
-11z m1300 -47 c-3 -3 -11 0 -18 7 -9 10 -8 11 6 5 10 -3 15 -9 12 -12z
m-1400 -92 c-9 -16 -17 -30 -20 -30 -2 0 1 14 6 30 6 17 15 30 20 30 5 0 3
-13 -6 -30z m1570 -74 c11 0 29 -8 39 -18 11 -10 23 -18 28 -18 4 0 8 -9 8
-21 0 -17 -4 -19 -22 -13 -13 4 -31 8 -40 8 -10 0 -18 6 -18 13 0 7 -13 19
-30 28 -35 18 -41 40 -7 29 12 -4 31 -8 42 -8z m-175 -69 c0 -17 -1 -17 -16
-2 -9 8 -36 21 -60 27 -52 14 -56 26 -11 30 38 4 87 -27 87 -55z m-1080 29 c0
-3 -4 -8 -10 -11 -5 -3 -10 -1 -10 4 0 6 5 11 10 11 6 0 10 -2 10 -4z m620
-31 c0 -1 -9 -5 -20 -8 -12 -3 -20 0 -20 8 0 8 8 11 20 8 11 -3 20 -7 20 -8z
m-110 -55 c0 -5 -7 -10 -15 -10 -8 0 -15 5 -15 10 0 6 7 10 15 10 8 0 15 -4
15 -10z m150 0 c-8 -5 -19 -10 -25 -10 -5 0 -3 5 5 10 8 5 20 10 25 10 6 0 3
-5 -5 -10z m-906 -835 c3 -8 1 -15 -4 -15 -6 0 -10 7 -10 15 0 8 2 15 4 15 2
0 6 -7 10 -15z m-739 -345 c3 -5 -1 -10 -9 -10 -9 0 -16 5 -16 10 0 6 4 10 9
10 6 0 13 -4 16 -10z m290 -1130 c3 -5 1 -10 -4 -10 -6 0 -11 5 -11 10 0 6 2
10 4 10 3 0 8 -4 11 -10z m83 -48 c2 -21 0 -22 -14 -8 -8 9 -20 16 -25 16 -5
0 -9 3 -9 8 0 4 10 7 23 7 17 0 24 -6 25 -23z m82 -49 c0 -28 -3 -34 -10 -23
-8 12 -10 10 -11 -10 -2 -24 -2 -24 -6 -2 -3 14 -9 20 -16 15 -9 -5 -8 -2 0 8
10 12 10 18 0 29 -6 7 -7 10 -2 7 6 -3 17 -2 25 4 8 5 16 9 18 9 1 0 2 -17 2
-37z m-345 -44 c11 -16 1 -19 -13 -3 -7 8 -8 14 -3 14 5 0 13 -5 16 -11z
m-130 -9 c3 -5 -1 -10 -9 -10 -9 0 -16 5 -16 10 0 6 4 10 9 10 6 0 13 -4 16
-10z m-84 -35 c1 6 4 -3 8 -20 5 -19 12 -29 22 -27 12 3 12 1 0 -10 -11 -10
-14 -10 -18 0 -3 7 -10 18 -16 25 -7 6 -13 21 -15 32 -2 16 -1 17 7 5 6 -8 11
-10 12 -5z m512 8 c-7 -2 -13 -14 -14 -26 0 -12 -3 -16 -6 -9 -7 18 4 42 19
41 10 0 10 -2 1 -6z m122 -3 c3 -5 1 -10 -4 -10 -6 0 -11 5 -11 10 0 6 2 10 4
10 3 0 8 -4 11 -10z m-695 -15 c0 -8 -4 -15 -10 -15 -5 0 -7 7 -4 15 4 8 8 15
10 15 2 0 4 -7 4 -15z m647 -22 c-3 -10 -5 -4 -5 12 0 17 2 24 5 18 2 -7 2
-21 0 -30z m-707 7 c0 -5 -2 -10 -4 -10 -3 0 -8 5 -11 10 -3 6 -1 10 4 10 6 0
11 -4 11 -10z m30 0 c0 -5 -4 -10 -10 -10 -5 0 -10 5 -10 10 0 6 5 10 10 10 6
0 10 -4 10 -10z m627 -12 c-3 -8 -6 -5 -6 6 -1 11 2 17 5 13 3 -3 4 -12 1 -19z
m176 7 c4 -8 2 -17 -3 -20 -6 -4 -10 0 -10 9 0 8 -6 17 -12 19 -8 4 -7 6 3 6
9 1 19 -6 22 -14z m124 -7 c-3 -8 -6 -5 -6 6 -1 11 2 17 5 13 3 -3 4 -12 1
-19z m-580 -40 c-4 -9 -6 -8 -6 3 -1 9 -10 19 -22 22 -12 3 -18 10 -14 16 9
15 49 -24 42 -41z m-317 22 c0 -5 -2 -10 -4 -10 -3 0 -8 5 -11 10 -3 6 -1 10
4 10 6 0 11 -4 11 -10z m698 -15 c-3 -3 -9 2 -12 12 -6 14 -5 15 5 6 7 -7 10
-15 7 -18z m57 5 c8 -25 -3 -98 -16 -106 -11 -6 -17 9 -22 56 -6 56 24 95 38
50z m-875 0 c0 -5 -5 -10 -11 -10 -5 0 -7 5 -4 10 3 6 8 10 11 10 2 0 4 -4 4
-10z m-45 -31 c-7 -20 -8 -21 -17 -4 -8 12 -7 20 3 26 18 11 22 5 14 -22z
m508 -10 c3 -12 3 -18 0 -15 -4 3 -13 0 -21 -7 -13 -10 -14 -9 -7 3 6 8 10 18
11 23 3 14 4 17 8 17 2 0 6 -9 9 -21z m77 11 c0 -5 -7 -7 -15 -4 -8 4 -15 8
-15 10 0 2 7 4 15 4 8 0 15 -4 15 -10z m240 6 c0 -3 -4 -8 -10 -11 -5 -3 -10
-1 -10 4 0 6 5 11 10 11 6 0 10 -2 10 -4z m254 -76 c4 -35 5 -62 3 -60 -11 14
-34 69 -26 65 5 -4 9 4 9 17 0 18 -2 20 -10 8 -7 -12 -9 -10 -7 7 0 12 5 19 9
17 4 -3 8 0 8 7 0 32 8 -3 14 -61z m-864 50 c0 -5 -5 -10 -11 -10 -5 0 -7 5
-4 10 3 6 8 10 11 10 2 0 4 -4 4 -10z m53 -37 c-4 -10 -9 -11 -18 -3 -8 6 -14
7 -17 1 -1 -5 -9 -3 -16 5 -10 11 -7 13 22 12 24 -1 33 -5 29 -15z m554 -5
c-3 -8 -6 -5 -6 6 -1 11 2 17 5 13 3 -3 4 -12 1 -19z m282 -15 c-1 -34 -2 -35
-9 -13 -11 36 -11 50 0 50 6 0 10 -17 9 -37z m-462 21 c-3 -3 -12 -4 -19 -1
-8 3 -5 6 6 6 11 1 17 -2 13 -5z m80 -9 c0 -7 -6 -12 -13 -12 -7 0 -11 4 -8 8
2 4 -2 9 -8 12 -7 3 -4 5 8 4 11 -1 21 -6 21 -12z m277 9 c9 -3 16 -17 16 -29
0 -13 6 -25 13 -28 9 -3 8 -8 -3 -23 -14 -18 -14 -18 3 -5 15 12 17 11 17 -8
0 -11 5 -21 10 -21 6 0 10 -5 10 -11 0 -8 -4 -9 -13 0 -8 6 -18 7 -22 3 -5 -4
-5 -1 -1 6 4 7 1 12 -9 12 -11 0 -16 8 -15 23 4 43 0 68 -10 62 -5 -3 -10 -1
-10 5 0 6 -5 8 -12 4 -7 -4 -8 -3 -4 4 8 14 9 14 30 6z m-634 -14 c0 -5 -5
-10 -11 -10 -6 0 -8 -7 -5 -17 4 -10 4 -14 0 -10 -4 4 -13 2 -20 -3 -19 -16
-54 -21 -51 -7 1 7 -4 11 -12 9 -12 -3 -12 0 -1 12 14 17 25 22 15 7 -3 -5 -1
-12 4 -15 5 -3 11 4 14 15 4 14 11 20 21 16 8 -3 18 -2 21 3 8 13 25 13 25 0z
m315 -19 c3 -5 0 -13 -6 -17 -7 -4 -9 -3 -5 4 3 6 -2 13 -11 15 -16 4 -16 5
-1 6 9 0 19 -3 23 -8z m312 -17 c-7 -7 -37 7 -37 17 0 6 9 5 21 -1 11 -7 19
-14 16 -16z m-897 2 c0 -3 -4 -8 -10 -11 -5 -3 -10 -1 -10 4 0 6 5 11 10 11 6
0 10 -2 10 -4z m635 -45 c-6 -5 -30 23 -33 39 -1 8 6 4 17 -10 11 -14 18 -26
16 -29z m-815 29 c0 -5 -2 -10 -4 -10 -3 0 -8 5 -11 10 -3 6 -1 10 4 10 6 0
11 -4 11 -10z m618 -5 c4 -4 -1 -5 -12 -3 -12 2 -20 -3 -22 -15 -4 -30 -11
-30 -16 1 -4 25 -1 29 20 26 13 -1 27 -5 30 -9z m412 5 c0 -5 -5 -10 -11 -10
-5 0 -7 5 -4 10 3 6 8 10 11 10 2 0 4 -4 4 -10z m118 -15 c-3 -3 -9 2 -12 12
-6 14 -5 15 5 6 7 -7 10 -15 7 -18z m-598 -79 c-7 -7 -10 -2 -11 12 -4 72 2
94 12 42 5 -28 5 -48 -1 -54z m530 79 c0 -8 -4 -15 -10 -15 -5 0 -7 7 -4 15 4
8 8 15 10 15 2 0 4 -7 4 -15z m170 5 c-8 -5 -10 -10 -4 -10 14 0 5 -60 -12
-77 -13 -13 -8 -53 7 -53 5 0 6 6 3 14 -3 8 -1 17 5 21 6 3 11 0 12 -7 4 -45
3 -54 -3 -58 -18 -14 -11 -33 15 -37 20 -3 27 1 27 12 0 9 10 26 21 38 l22 22
-6 -25 c-3 -14 -8 -35 -12 -47 -6 -18 -4 -21 14 -16 11 3 18 9 15 14 -3 5 1 9
8 9 8 0 14 -8 14 -19 0 -13 -6 -17 -21 -14 -17 4 -18 3 -5 -7 12 -9 11 -10 -7
-5 -14 4 -23 2 -23 -4 0 -6 9 -11 20 -11 11 0 19 -5 18 -11 -2 -6 3 -14 11
-17 8 -3 11 0 7 7 -4 6 0 11 11 11 15 0 16 2 3 10 -13 8 -12 10 3 10 10 0 15
4 12 10 -3 5 0 7 9 4 8 -3 17 -12 20 -20 3 -9 1 -12 -4 -9 -6 3 -10 -1 -10
-10 0 -12 -5 -15 -17 -11 -10 4 -14 3 -9 -1 4 -4 22 -14 39 -21 21 -8 24 -11
8 -8 -17 4 -21 2 -13 -6 7 -7 8 -17 3 -27 -5 -9 -11 -43 -15 -76 -3 -33 -3
-51 1 -40 5 19 43 63 43 50 0 -4 7 1 16 10 9 8 13 23 10 31 -5 12 -2 15 10 10
12 -5 15 -2 10 11 -5 15 -3 14 9 -2 14 -17 14 -20 2 -23 -9 -2 -13 -11 -10
-23 3 -10 1 -19 -4 -19 -5 0 -17 -13 -26 -30 -16 -27 -17 -30 -2 -30 9 0 14 4
10 9 -3 5 0 13 6 17 8 5 10 -2 7 -24 -3 -24 0 -32 14 -35 10 -3 18 -1 18 3 0
5 15 19 33 31 l32 23 -20 -25 c-11 -13 -24 -27 -29 -30 -5 -4 -6 -14 -3 -23 4
-9 2 -15 -5 -13 -13 3 -20 -31 -7 -39 5 -3 9 0 9 6 0 21 25 37 45 29 11 -4 14
-8 7 -8 -7 -1 -10 -5 -7 -11 3 -5 1 -10 -5 -10 -6 0 -18 -6 -26 -14 -10 -11
-11 -15 -1 -19 9 -3 9 -10 -2 -30 -8 -15 -11 -30 -6 -34 4 -5 10 -2 12 5 7 19
23 14 23 -8 0 -13 -7 -20 -18 -20 -10 0 -19 -7 -19 -15 0 -11 12 -15 44 -15
38 0 43 -3 43 -22 0 -19 -2 -20 -10 -8 -8 13 -11 12 -24 -5 -11 -14 -15 -16
-16 -6 0 20 -17 2 -22 -24 -4 -18 -6 -17 -16 7 -6 14 -19 31 -28 36 -11 6 -15
17 -11 31 3 14 0 21 -9 21 -13 0 -18 12 -15 33 0 4 -3 7 -9 7 -5 0 -10 7 -10
15 0 9 -8 19 -17 22 -15 6 -15 7 3 14 17 7 17 8 -4 8 -13 1 -20 5 -17 11 3 6
0 13 -8 16 -7 2 -14 11 -15 19 -1 8 -3 22 -4 31 -1 9 -8 14 -19 11 -12 -3 -18
2 -22 19 -2 13 1 24 7 25 7 0 6 3 -2 6 -6 2 -10 9 -6 14 3 5 -7 14 -22 19
l-26 10 26 25 c15 14 23 25 18 25 -5 0 -15 -7 -22 -15 -17 -21 -30 -19 -30 5
0 11 -7 23 -15 26 -8 4 -12 11 -8 17 4 6 0 8 -11 4 -10 -4 -15 -3 -11 3 3 6 0
10 -7 11 -10 0 -11 2 0 6 10 4 10 8 2 18 -6 8 -17 12 -24 9 -14 -5 -15 5 -16
175 0 59 2 72 14 68 11 -4 13 1 9 24 -3 23 -1 29 14 29 15 0 16 -2 3 -10z m70
6 c0 -2 -7 -7 -16 -10 -8 -3 -12 -2 -9 4 6 10 25 14 25 6z m-802 -15 c2 -1 -4
-8 -12 -17 -9 -8 -13 -20 -10 -26 4 -6 -1 -6 -13 1 -11 6 -23 7 -27 4 -3 -3
-6 -1 -6 5 0 7 5 12 10 12 6 0 9 3 9 8 -3 15 2 19 24 16 12 -1 23 -3 25 -3z
m-71 -7 c-3 -3 -12 -4 -19 -1 -8 3 -5 6 6 6 11 1 17 -2 13 -5z m247 -9 c3 -8
1 -15 -3 -15 -5 0 -11 7 -15 15 -3 8 -1 15 3 15 5 0 11 -7 15 -15z m-614 -5
c0 -5 -4 -10 -10 -10 -5 0 -10 5 -10 10 0 6 5 10 10 10 6 0 10 -4 10 -10z
m791 -4 c8 5 9 3 5 -5 -11 -16 20 -49 62 -67 24 -9 32 -19 28 -29 -3 -8 -1
-15 4 -15 6 0 10 4 10 9 0 4 31 9 69 10 61 1 69 0 74 -19 3 -11 1 -23 -5 -26
-5 -4 -8 -17 -5 -30 2 -14 0 -27 -4 -30 -5 -3 -9 0 -9 6 0 6 -4 9 -9 6 -5 -4
-16 -3 -25 0 -15 6 -15 8 1 20 17 13 17 13 1 14 -10 0 -18 5 -18 11 0 6 -12
-3 -26 -20 -14 -17 -31 -31 -37 -30 -9 0 -9 2 0 5 7 3 11 11 9 17 -1 7 -1 9 1
4 7 -11 23 2 23 18 0 10 -9 13 -30 10 -22 -3 -31 1 -35 16 -4 10 -3 23 0 29 6
9 -10 14 -42 13 -7 -1 -13 4 -13 9 0 6 -8 4 -17 -3 -16 -13 -17 -12 -5 3 17
21 0 33 -41 30 -16 -2 -26 2 -22 7 3 6 12 8 19 5 8 -3 17 0 22 7 5 8 3 10 -6
4 -9 -5 -11 -4 -6 3 4 7 2 12 -3 12 -6 0 -11 5 -11 11 0 8 4 8 15 -1 8 -6 20
-8 26 -4z m-61 -10 c0 -8 -5 -18 -12 -22 -7 -5 -9 -2 -5 9 3 9 1 18 -6 21 -7
2 -4 5 6 5 9 1 17 -5 17 -13z m-150 -3 c0 -5 -5 -15 -10 -23 -8 -12 -10 -11
-10 8 0 12 5 22 10 22 6 0 10 -3 10 -7z m-710 -9 c0 -8 -19 -13 -24 -6 -3 5 1
9 9 9 8 0 15 -2 15 -3z m1240 -8 c0 -14 -14 -36 -22 -36 -6 0 -6 6 1 14 9 11
9 15 -1 19 -8 4 -7 6 5 6 9 1 17 -1 17 -3z m-665 -16 c-3 -5 -10 -10 -16 -10
-5 0 -9 5 -9 10 0 6 7 10 16 10 8 0 12 -4 9 -10z m787 -2 c3 -7 -3 -22 -13
-32 -11 -11 -19 -14 -19 -8 0 6 5 14 10 17 17 10 11 25 -7 19 -15 -5 -16 -4
-3 5 20 14 27 14 32 -1z m-1042 -8 c0 -5 -5 -10 -11 -10 -5 0 -7 5 -4 10 3 6
8 10 11 10 2 0 4 -4 4 -10z m360 0 c0 -5 -7 -10 -16 -10 -8 0 -12 5 -9 10 3 6
10 10 16 10 5 0 9 -4 9 -10z m-43 -22 c-3 -8 -6 -5 -6 6 -1 11 2 17 5 13 3 -3
4 -12 1 -19z m801 -3 c-3 -3 -9 2 -12 12 -6 14 -5 15 5 6 7 -7 10 -15 7 -18z
m-666 3 c-9 -9 -15 -9 -24 0 -9 9 -7 12 12 12 19 0 21 -3 12 -12z m-52 -14 c0
-2 -9 -4 -21 -4 -11 0 -18 4 -14 10 5 8 35 3 35 -6z m697 -6 c-3 -8 -6 -5 -6
6 -1 11 2 17 5 13 3 -3 4 -12 1 -19z m-199 -25 c-8 -10 -18 -25 -22 -33 -3 -8
-3 1 0 20 8 45 14 54 27 41 7 -7 6 -16 -5 -28z m282 14 c0 -8 -3 -7 -9 2 -6
10 -11 2 -16 -27 -5 -33 -10 -39 -26 -35 -20 6 -27 33 -8 33 5 0 7 5 3 12 -5
8 -2 9 12 4 10 -4 15 -4 11 0 -9 9 13 35 24 28 5 -3 9 -11 9 -17z m-1437 -28
c-5 -5 -9 3 -11 19 -1 24 0 25 9 9 7 -11 7 -23 2 -28z m67 16 c-12 -15 -30
-12 -30 5 0 8 31 19 39 13 2 -1 -2 -9 -9 -18z m644 -4 c20 -21 24 -31 15 -36
-8 -5 -10 -4 -5 3 7 11 -6 17 -27 13 -5 -1 -6 3 -3 8 3 5 -1 11 -9 15 -16 6
-21 26 -7 26 5 0 21 -13 36 -29z m212 7 c1 -13 4 -33 7 -46 4 -13 2 -20 -4
-17 -5 4 -7 10 -4 15 3 5 -4 19 -15 30 -21 21 -19 40 3 40 7 0 13 -10 13 -22z
m-52 -13 c3 -8 1 -15 -3 -15 -5 0 -11 7 -15 15 -3 8 -1 15 3 15 5 0 11 -7 15
-15z m-719 -35 c3 -5 2 -10 -4 -10 -5 0 -13 5 -16 10 -3 6 -2 10 4 10 5 0 13
-4 16 -10z m542 -12 c-3 -8 -6 -5 -6 6 -1 11 2 17 5 13 3 -3 4 -12 1 -19z
m194 -1 c-10 -9 -11 -8 -5 6 3 10 9 15 12 12 3 -3 0 -11 -7 -18z m-131 -7 c0
-5 -7 -7 -15 -4 -8 4 -15 8 -15 10 0 2 7 4 15 4 8 0 15 -4 15 -10z m96 1 c-4
-5 0 -11 6 -14 7 -3 3 -4 -9 -4 -25 1 -30 12 -10 20 18 8 19 8 13 -2z m324
-32 c0 -7 -6 -4 -15 7 -19 25 -19 40 0 20 8 -8 15 -20 15 -27z m314 15 c3 -8
2 -12 -4 -9 -6 3 -10 10 -10 16 0 14 7 11 14 -7z m-1194 -4 c-20 -13 -33 -13
-25 0 3 6 14 10 23 10 15 0 15 -2 2 -10z m490 -5 c0 -7 -30 -13 -34 -7 -3 4 4
9 15 9 10 1 19 0 19 -2z m275 -5 c-3 -5 -14 -10 -23 -9 -14 0 -13 2 3 9 27 11
27 11 20 0z m-185 -15 c-9 -11 -9 -15 -1 -15 7 0 9 -5 5 -11 -4 -8 -9 -7 -15
2 -4 7 -6 16 -3 20 2 4 -2 10 -8 12 -7 3 -2 6 11 6 20 1 21 -1 11 -14z m222
-5 c-2 -7 5 -10 20 -6 13 3 17 3 10 0 -6 -3 -9 -11 -6 -16 4 -7 2 -8 -4 -4 -7
4 -12 3 -12 -2 0 -5 -6 -9 -13 -9 -7 0 -13 12 -12 29 0 15 4 26 10 24 5 -2 9
-9 7 -16z m365 13 c-9 -2 -14 -9 -11 -15 4 -7 2 -8 -4 -4 -20 12 -13 26 11 25
17 -1 18 -2 4 -6z m-472 -13 c-3 -5 -12 -10 -18 -10 -7 0 -6 4 3 10 19 12 23
12 15 0z m-665 -14 c0 -2 -7 -7 -16 -10 -8 -3 -12 -2 -9 4 6 10 25 14 25 6z
m1110 -6 c0 -5 -2 -10 -4 -10 -3 0 -8 5 -11 10 -3 6 -1 10 4 10 6 0 11 -4 11
-10z m85 -8 c-3 -3 -11 0 -18 7 -9 10 -8 11 6 5 10 -3 15 -9 12 -12z m-1505
-8 c0 -2 -7 -4 -15 -4 -8 0 -15 4 -15 10 0 5 7 7 15 4 8 -4 15 -8 15 -10z
m445 6 c3 -5 1 -10 -4 -10 -6 0 -11 5 -11 10 0 6 2 10 4 10 3 0 8 -4 11 -10z
m128 0 c-7 -8 -52 -7 -47 1 2 4 15 6 28 5 13 0 22 -3 19 -6z m441 -1 c-2 -4 3
-10 12 -13 8 -3 12 -2 9 3 -3 5 -1 12 5 16 5 3 10 0 10 -9 0 -8 5 -17 10 -19
6 -3 5 -4 -2 -3 -7 2 -22 -4 -32 -13 -11 -9 -16 -11 -13 -4 5 8 0 11 -13 10
-17 -1 -18 -4 -7 -21 8 -11 23 -20 36 -21 12 -1 26 -6 32 -12 7 -7 1 -9 -22
-7 -31 4 -43 13 -79 58 -14 18 -13 19 13 14 15 -3 30 -1 33 3 3 5 -4 9 -15 9
-11 0 -22 4 -25 8 -2 4 8 8 24 7 15 0 26 -3 24 -6z m-529 -9 c-3 -5 -11 -10
-16 -10 -6 0 -7 5 -4 10 3 6 11 10 16 10 6 0 7 -4 4 -10z m248 -5 c-3 -9 -8
-14 -10 -11 -3 3 -2 9 2 15 9 16 15 13 8 -4z m82 6 c3 -5 2 -12 -3 -15 -5 -3
-9 1 -9 9 0 17 3 19 12 6z m330 -24 c1 -15 0 -25 -3 -22 -2 2 -14 -1 -26 -7
-18 -10 -19 -9 -9 4 7 8 10 18 6 21 -3 4 2 10 11 13 14 5 15 9 4 16 -10 8 -10
9 2 6 8 -3 15 -16 15 -31z m-205 19 c0 -2 -8 -10 -17 -17 -16 -13 -17 -12 -4
4 13 16 21 21 21 13z m530 -12 c0 -2 -7 -4 -15 -4 -8 0 -15 4 -15 10 0 5 7 7
15 4 8 -4 15 -8 15 -10z m-820 -4 c0 -5 -8 -10 -17 -10 -15 0 -16 2 -3 10 19
12 20 12 20 0z m177 -22 c-3 -8 -6 -5 -6 6 -1 11 2 17 5 13 3 -3 4 -12 1 -19z
m683 7 c0 -8 -2 -15 -4 -15 -2 0 -6 7 -10 15 -3 8 -1 15 4 15 6 0 10 -7 10
-15z m-1660 -10 c-7 -9 -15 -13 -17 -11 -7 7 7 26 19 26 6 0 6 -6 -2 -15z
m1045 5 c-3 -5 -1 -10 6 -10 7 0 10 -3 6 -6 -9 -9 -28 6 -22 17 4 5 8 9 11 9
3 0 2 -4 -1 -10z m295 -35 c0 -8 -3 -16 -7 -18 -5 -3 -8 5 -8 18 0 13 3 21 8
18 4 -2 7 -10 7 -18z m226 0 c1 -8 -2 -13 -7 -9 -5 3 -9 12 -9 21 0 19 13 9
16 -12z m134 4 c0 -5 -7 -9 -15 -9 -9 0 -12 6 -9 15 6 15 24 11 24 -6z m-1000
1 c0 -5 -4 -10 -10 -10 -5 0 -10 5 -10 10 0 6 5 10 10 10 6 0 10 -4 10 -10z
m435 -18 c-8 -8 -25 10 -19 20 4 6 9 5 15 -3 4 -7 6 -15 4 -17z m-40 -6 c10
-7 26 -11 36 -9 9 3 20 -1 25 -8 5 -9 2 -11 -9 -6 -9 3 -19 2 -22 -3 -4 -6 1
-10 9 -10 9 0 16 -4 16 -10 0 -13 -27 -13 -35 0 -3 5 -13 6 -23 3 -9 -3 -14
-3 -10 2 4 4 3 14 -3 22 -6 7 -8 13 -3 13 5 0 2 5 -6 10 -8 5 -10 10 -4 10 5
0 19 -6 29 -14z m595 1 c0 -2 -9 -14 -20 -27 -20 -23 -26 -17 -14 14 5 13 34
24 34 13z m-1655 -17 c3 -6 -1 -7 -9 -4 -18 7 -21 14 -7 14 6 0 13 -4 16 -10z
m1728 -20 c3 -13 0 -20 -9 -20 -8 0 -14 -5 -14 -12 0 -6 -2 -9 -5 -6 -8 8 5
58 15 58 4 0 10 -9 13 -20z m-540 -12 c21 4 22 -11 2 -28 -12 -10 -18 -10 -30
0 -8 7 -15 9 -15 4 0 -10 -20 17 -20 28 0 4 7 4 17 1 12 -5 14 -3 9 8 -5 10
-4 9 6 -1 7 -9 21 -14 31 -12z m83 3 c11 9 14 9 14 -1 0 -10 3 -10 15 0 9 7
15 8 15 2 0 -5 8 -9 18 -8 12 1 17 -6 16 -22 0 -12 4 -22 10 -21 30 4 38 -1
27 -15 -9 -11 -7 -15 9 -19 21 -5 37 -33 26 -45 -4 -4 -16 4 -28 18 -11 14
-17 20 -14 13 4 -6 2 -14 -4 -18 -5 -3 -10 -1 -10 5 0 8 -6 8 -20 0 -11 -6
-19 -16 -17 -22 2 -14 -30 -17 -55 -6 -13 6 -16 4 -13 -12 2 -12 0 -18 -6 -15
-5 4 -7 10 -4 14 2 5 -15 7 -39 5 -37 -3 -44 -1 -41 14 2 9 4 18 5 20 2 2 5
10 9 27 2 11 41 -16 40 -28 0 -9 -2 -9 -6 1 -8 19 -22 14 -20 -8 1 -15 7 -20
22 -18 11 2 21 9 21 16 1 6 2 20 3 30 1 15 3 15 11 2 9 -14 14 -7 11 13 -1 4
6 10 14 13 8 4 15 10 15 16 0 5 -4 6 -10 3 -5 -3 -10 -1 -10 4 0 15 43 7 48
-9 3 -7 0 -10 -6 -6 -20 12 -20 -10 -1 -34 18 -23 20 -23 18 -5 -1 11 0 22 1
25 1 3 4 16 6 30 4 23 1 25 -31 25 -19 0 -35 -4 -35 -8 0 -4 -8 -3 -18 2 -13
7 -22 7 -29 0 -6 -6 -10 -5 -10 5 0 8 4 13 8 10 4 -2 11 1 15 8 6 9 9 9 12 0
3 -10 7 -10 18 -1z m-253 -24 c4 3 7 4 7 0 0 -18 -21 -14 -30 5 -10 21 -10 21
3 6 8 -10 17 -15 20 -11z m207 -23 c0 -2 -10 -9 -22 -15 -20 -11 -21 -10 -11
3 7 8 10 18 6 22 -4 4 0 4 10 0 9 -3 17 -8 17 -10z m40 6 c0 -5 -5 -10 -11
-10 -5 0 -7 5 -4 10 3 6 8 10 11 10 2 0 4 -4 4 -10z m-195 -20 c3 -6 -1 -7 -9
-4 -18 7 -21 14 -7 14 6 0 13 -4 16 -10z m-267 -18 c2 -7 -5 -12 -17 -12 -14
0 -19 5 -14 15 6 17 25 15 31 -3z m369 12 c-3 -3 -12 -4 -19 -1 -8 3 -5 6 6 6
11 1 17 -2 13 -5z m-77 -30 c0 -2 -7 -4 -15 -4 -8 0 -15 4 -15 10 0 5 7 7 15
4 8 -4 15 -8 15 -10z m57 -16 c2 -16 0 -19 -6 -9 -6 9 -11 10 -15 2 -4 -6 -12
-11 -18 -11 -5 0 0 9 13 20 13 10 24 19 24 20 1 0 2 -10 2 -22z m-522 2 c3 -5
1 -10 -4 -10 -6 0 -11 5 -11 10 0 6 2 10 4 10 3 0 8 -4 11 -10z m1172 -6 c-3
-3 -12 -4 -19 -1 -8 3 -5 6 6 6 11 1 17 -2 13 -5z m-1407 -14 c0 -5 -5 -10
-11 -10 -5 0 -7 5 -4 10 3 6 8 10 11 10 2 0 4 -4 4 -10z m1346 -17 c-6 -6 -36
9 -36 18 0 5 9 4 20 -3 10 -7 18 -14 16 -15z m-292 -9 c4 -15 2 -32 -5 -40
-16 -19 -29 -18 -28 4 0 10 3 12 6 4 2 -6 9 -10 13 -7 5 3 7 12 4 20 -5 11
-11 12 -25 4 -15 -7 -19 -7 -17 3 2 7 -5 12 -14 12 -10 -1 -15 2 -12 7 2 5 18
7 34 5 16 -2 27 1 24 5 -3 5 -1 9 4 9 6 0 13 -12 16 -26z m-66 -35 c32 -12 15
-27 -28 -24 -21 1 -30 -3 -30 -14 0 -13 -2 -14 -9 -2 -5 8 -7 20 -4 28 4 9 -4
13 -23 13 -26 0 -27 1 -12 17 14 14 20 14 33 3 12 -10 18 -11 28 -1 9 10 8 11
-8 5 l-20 -7 20 16 c19 14 20 14 23 -4 2 -11 15 -25 30 -30z m392 43 c0 -16
-23 -30 -38 -25 -10 4 -13 2 -8 -5 4 -8 0 -12 -11 -13 -13 -1 -11 -3 7 -9 22
-7 22 -8 4 -9 -11 -1 -24 2 -27 6 -9 9 22 43 40 43 7 0 13 5 13 10 0 6 5 10
10 10 6 0 10 -4 10 -8z m30 -37 c0 -8 -7 -15 -15 -15 -13 0 -14 3 -3 15 16 18
18 18 18 0z m-1307 -8 c3 -7 -3 -18 -12 -24 -15 -9 -17 -8 -15 11 3 27 2 26
13 26 5 0 11 -6 14 -13z m746 -9 c0 -13 -3 -17 -6 -10 -2 6 -9 10 -14 7 -5 -4
-6 1 -3 9 9 24 24 19 23 -6z m438 6 c-3 -3 -12 -4 -19 -1 -8 3 -5 6 6 6 11 1
17 -2 13 -5z m-393 -12 c2 -4 -4 -8 -14 -8 -10 0 -16 4 -14 8 3 4 9 8 14 8 5
0 11 -4 14 -8z m179 -17 c-4 -11 -1 -13 13 -8 13 5 16 3 11 -10 -3 -8 -1 -17
4 -19 5 -2 3 -12 -5 -23 -15 -20 -15 -20 -9 3 5 21 -4 28 -30 23 -5 -1 -6 3
-2 9 3 5 1 10 -4 10 -8 0 -7 7 1 19 14 22 30 18 21 -4z m231 -24 c-6 -6 -24
19 -24 34 1 6 7 1 15 -9 8 -11 12 -22 9 -25z m39 22 c-7 -2 -19 -2 -25 0 -7 3
-2 5 12 5 14 0 19 -2 13 -5z m-320 -16 c4 3 7 1 7 -5 0 -7 -11 -12 -25 -12
-18 0 -23 4 -19 15 5 11 10 13 19 5 6 -5 15 -7 18 -3z m381 -5 c-6 -4 -14 -14
-17 -22 -4 -10 -6 -8 -6 8 -1 15 5 22 17 22 10 0 13 -3 6 -8z m-439 -12 c-3
-5 -11 -10 -16 -10 -6 0 -7 5 -4 10 3 6 11 10 16 10 6 0 7 -4 4 -10z m409 -40
c-7 -6 -24 22 -23 40 0 9 6 5 14 -10 7 -14 11 -27 9 -30z m-459 30 c-3 -5 -10
-10 -16 -10 -5 0 -9 5 -9 10 0 6 7 10 16 10 8 0 12 -4 9 -10z m435 -40 c0 -13
-1 -13 -10 0 -5 8 -10 22 -10 30 0 13 1 13 10 0 5 -8 10 -22 10 -30z m-990 23
c0 -5 -11 -13 -25 -20 -27 -12 -28 -12 -19 11 6 16 44 23 44 9z m627 -25 c-3
-8 -6 -5 -6 6 -1 11 2 17 5 13 3 -3 4 -12 1 -19z m150 5 c3 -10 11 -25 18 -33
7 -8 15 -23 18 -32 5 -15 3 -16 -19 -6 -13 6 -22 13 -20 15 2 3 0 18 -6 34
l-10 30 -17 -31 c-17 -32 -38 -40 -33 -12 3 17 40 51 55 52 4 0 10 -8 14 -17z
m-1017 -3 c0 -5 -5 -10 -11 -10 -5 0 -7 5 -4 10 3 6 8 10 11 10 2 0 4 -4 4
-10z m270 0 c0 -5 -5 -10 -11 -10 -5 0 -7 5 -4 10 3 6 8 10 11 10 2 0 4 -4 4
-10z m40 6 c0 -3 -4 -8 -10 -11 -5 -3 -10 -1 -10 4 0 6 5 11 10 11 6 0 10 -2
10 -4z m415 -37 c-1 -10 -5 -22 -10 -26 -4 -5 -5 -2 -1 5 4 7 1 15 -8 18 -18
7 -13 21 7 21 7 0 13 -8 12 -18z m118 1 c3 -11 1 -18 -4 -14 -5 3 -9 12 -9 20
0 20 7 17 13 -6z m-49 -2 c-3 -4 -14 -8 -25 -8 -11 0 -18 4 -15 8 2 4 14 8 25
8 11 0 17 -4 15 -8z m26 -18 c0 -5 -2 -10 -4 -10 -3 0 -8 5 -11 10 -3 6 -1 10
4 10 6 0 11 -4 11 -10z m398 3 c-10 -2 -26 -2 -35 0 -10 3 -2 5 17 5 19 0 27
-2 18 -5z m-1118 -33 c0 -5 -5 -10 -11 -10 -5 0 -7 5 -4 10 3 6 8 10 11 10 2
0 4 -4 4 -10z m810 6 c0 -2 -8 -10 -17 -17 -16 -13 -17 -12 -4 4 13 16 21 21
21 13z m-760 -16 c0 -5 -5 -10 -11 -10 -5 0 -7 5 -4 10 3 6 8 10 11 10 2 0 4
-4 4 -10z m873 -9 c-4 -14 10 -14 25 1 14 14 46 -8 38 -27 -2 -7 9 -27 25 -44
33 -36 38 -57 12 -43 -10 5 -23 7 -30 5 -8 -3 -11 3 -8 15 5 27 -14 48 -48 56
-21 5 -27 4 -21 -5 4 -8 3 -9 -5 -5 -9 6 -9 11 -1 21 9 10 6 16 -10 25 -22 12
-35 7 -35 -12 0 -6 -10 -17 -22 -25 -19 -13 -21 -13 -19 1 3 24 49 54 76 51
14 -2 24 -8 23 -14z m352 -1 c-3 -4 1 -11 7 -13 8 -3 6 -6 -5 -6 -12 -1 -16
-6 -11 -13 4 -7 -1 -6 -11 4 -15 14 -15 18 -4 31 14 15 34 13 24 -3z m-1169
-15 c18 -13 17 -14 -13 -12 -19 1 -33 7 -33 15 0 16 22 15 46 -3z m539 5 c-3
-5 -12 -10 -18 -10 -7 0 -6 4 3 10 19 12 23 12 15 0z m-435 -10 c0 -5 -5 -10
-11 -10 -5 0 -7 5 -4 10 3 6 8 10 11 10 2 0 4 -4 4 -10z m74 4 c25 -10 19 -22
-9 -16 -14 2 -22 8 -19 13 6 11 8 11 28 3z m381 -33 c3 -5 1 -12 -5 -16 -5 -3
-10 1 -10 9 0 18 6 21 15 7z m85 5 c0 -2 -8 -10 -17 -17 -16 -13 -17 -12 -4 4
13 16 21 21 21 13z m179 -19 c-2 -1 -13 -9 -24 -17 -19 -14 -19 -14 -6 3 7 9
18 17 24 17 6 0 8 -1 6 -3z m41 -18 c0 -5 -4 -9 -8 -9 -5 0 -9 7 -9 15 0 8 4
12 9 9 4 -3 8 -9 8 -15z m310 11 c0 -5 -8 -10 -17 -10 -15 0 -16 2 -3 10 19
12 20 12 20 0z m-1000 -17 c0 5 5 5 11 1 8 -5 6 -10 -5 -16 -21 -12 -37 -2
-29 18 5 13 7 13 14 2 5 -7 9 -9 9 -5z m1040 -8 c10 -12 7 -17 -14 -26 -14 -7
-28 -20 -31 -31 -8 -22 -21 -23 -29 -2 -11 29 -6 38 10 18 15 -18 15 -18 10 0
-4 11 0 27 10 37 21 23 28 23 44 4z m-1402 -30 c-3 -3 -9 2 -12 12 -6 14 -5
15 5 6 7 -7 10 -15 7 -18z m1029 -27 c-3 -8 -6 -5 -6 6 -1 11 2 17 5 13 3 -3
4 -12 1 -19z m30 0 c-3 -8 -6 -5 -6 6 -1 11 2 17 5 13 3 -3 4 -12 1 -19z m55
-11 c32 19 41 13 41 -29 0 -10 5 -18 11 -18 6 0 17 -9 23 -20 10 -15 10 -22
-3 -34 -8 -8 -21 -13 -29 -10 -17 7 -21 34 -5 34 6 0 5 10 -2 25 -6 13 -14 22
-19 20 -4 -3 -10 -1 -13 4 -3 5 -16 7 -29 5 -12 -2 -16 -2 -10 2 8 3 11 16 8
32 -5 26 -5 26 5 4 6 -15 14 -21 22 -15z m276 8 c-4 -21 -3 -23 9 -13 8 7 24
13 36 15 20 3 20 3 -3 -17 -27 -24 -56 -26 -64 -5 -3 8 -1 15 4 15 6 0 10 7
10 15 0 8 3 15 6 15 4 0 4 -11 2 -25z m-418 -11 c0 -8 -4 -12 -10 -9 -5 3 -10
10 -10 16 0 5 5 9 10 9 6 0 10 -7 10 -16z m-620 -18 c0 -8 -10 -16 -22 -19
-20 -5 -21 -4 -7 6 9 7 14 18 11 26 -3 8 0 11 7 7 6 -4 11 -13 11 -20z m664
-34 c3 -5 -1 -9 -9 -9 -8 0 -12 4 -9 9 3 4 7 8 9 8 2 0 6 -4 9 -8z m110 -4
c-3 -4 -11 -5 -19 -1 -10 3 -15 -1 -15 -13 0 -16 -2 -16 -10 -4 -6 9 -5 17 2
21 15 10 48 7 42 -3z m-144 -18 c0 -5 -5 -10 -11 -10 -5 0 -7 5 -4 10 3 6 8
10 11 10 2 0 4 -4 4 -10z m-1220 -16 c0 -8 -5 -12 -10 -9 -6 4 -8 11 -5 16 9
14 15 11 15 -7z m708 -10 c12 -4 22 -10 22 -15 0 -5 -11 -4 -24 1 -13 5 -27 6
-30 3 -3 -4 -6 -1 -6 5 0 13 5 14 38 6z m602 -10 c0 -8 -4 -12 -10 -9 -5 3
-18 1 -27 -4 -13 -7 -14 -10 -4 -11 8 0 12 -3 8 -6 -3 -3 -11 -3 -18 1 -8 6
-5 13 12 26 30 23 39 24 39 3z m150 -8 c0 -7 7 -19 15 -26 8 -7 13 -16 10 -20
-3 -4 2 -10 10 -14 12 -4 13 -11 5 -32 -9 -24 -8 -26 9 -21 15 4 21 -3 31 -38
13 -48 4 -80 -19 -66 -7 5 -10 14 -7 20 4 6 12 9 17 6 5 -4 9 0 9 8 0 13 -5
15 -49 19 -14 2 -19 10 -19 35 0 18 4 36 9 39 5 3 -6 20 -24 37 -29 28 -34 39
-28 62 3 12 31 4 31 -9z m198 7 c-10 -2 -26 -2 -35 0 -10 3 -2 5 17 5 19 0 27
-2 18 -5z m-248 -23 c0 -5 -9 -10 -20 -10 -11 0 -20 5 -20 10 0 6 9 10 20 10
11 0 20 -4 20 -10z m-700 -10 c0 -5 -5 -10 -11 -10 -5 0 -7 5 -4 10 3 6 8 10
11 10 2 0 4 -4 4 -10z m80 0 c0 -5 -4 -10 -10 -10 -5 0 -10 5 -10 10 0 6 5 10
10 10 6 0 10 -4 10 -10z m530 6 c0 -2 -7 -7 -16 -10 -8 -3 -12 -2 -9 4 6 10
25 14 25 6z m393 -3 c-7 -2 -19 -2 -25 0 -7 3 -2 5 12 5 14 0 19 -2 13 -5z
m-919 -49 c14 -11 26 -29 26 -42 0 -13 4 -20 10 -17 6 3 15 3 21 -1 8 -4 7 -9
-2 -14 -19 -13 -39 0 -39 25 0 17 -9 26 -32 35 -18 7 -36 12 -40 11 -5 0 -8 3
-8 8 0 5 -8 12 -17 15 -10 3 -2 3 18 2 21 -2 49 -12 63 -22z m326 16 c0 -5 -5
-10 -11 -10 -5 0 -7 5 -4 10 3 6 8 10 11 10 2 0 4 -4 4 -10z m341 -23 c-1 -12
-15 -9 -19 4 -3 6 1 10 8 8 6 -3 11 -8 11 -12z m319 0 c0 -15 -41 -37 -67 -37
-14 0 -14 2 3 15 10 8 27 15 37 15 9 0 17 5 17 10 0 6 2 10 5 10 3 0 5 -6 5
-13z m43 -67 c-3 -12 -8 -19 -11 -16 -5 6 5 36 12 36 2 0 2 -9 -1 -20z m-88
-25 c-17 -13 -37 -24 -45 -24 -12 0 -11 2 3 10 9 5 17 17 17 26 0 10 6 14 20
10 11 -3 20 0 20 6 0 6 3 7 7 3 4 -4 -6 -18 -22 -31z m53 10 c-3 -3 -9 2 -12
12 -6 14 -5 15 5 6 7 -7 10 -15 7 -18z m-853 -5 c-3 -5 -1 -19 5 -30 9 -16 8
-20 -5 -20 -8 0 -15 7 -15 15 0 8 -5 15 -12 15 -6 0 -3 7 8 15 23 17 27 18 19
5z m840 -10 c6 -10 -32 -49 -48 -50 -15 0 -39 -29 -33 -39 4 -5 0 -12 -6 -15
-7 -3 0 -2 16 1 21 4 27 3 22 -6 -4 -6 -11 -9 -15 -7 -4 3 -13 1 -21 -5 -13
-7 -13 -9 0 -9 28 0 60 12 54 21 -3 5 19 8 48 8 29 -1 45 -3 35 -6 -9 -2 -15
-8 -13 -12 3 -4 -5 -8 -17 -8 -17 -2 -19 0 -7 7 13 8 12 10 -3 10 -10 0 -25
-7 -33 -15 -17 -16 -13 -18 26 -15 14 1 23 0 20 -2 -3 -1 -20 -16 -39 -33 -29
-26 -32 -27 -22 -7 10 19 9 22 -9 22 -12 0 -19 4 -15 9 3 5 -4 11 -16 13 -12
2 -23 10 -25 18 -1 8 -3 20 -5 26 -4 10 79 101 93 103 4 1 10 -4 13 -9z m65 0
c0 -5 -5 -10 -11 -10 -5 0 -7 5 -4 10 3 6 8 10 11 10 2 0 4 -4 4 -10z m-256
-49 c15 -28 14 -28 -9 -28 -19 0 -25 5 -25 22 0 19 7 35 16 35 2 0 10 -13 18
-29z m216 9 c0 -5 -5 -10 -11 -10 -5 0 -7 5 -4 10 3 6 8 10 11 10 2 0 4 -4 4
-10z m-330 -46 c0 -8 -5 -12 -10 -9 -6 4 -8 11 -5 16 9 14 15 11 15 -7z m294
8 c3 -5 -8 -9 -25 -9 -19 0 -25 3 -17 9 17 10 35 10 42 0z m-859 -22 c3 -5 -1
-10 -9 -10 -8 0 -18 5 -21 10 -3 6 1 10 9 10 8 0 18 -4 21 -10z m710 -30 c-3
-5 2 -10 10 -13 16 -7 50 -67 37 -67 -4 0 -19 10 -32 23 -14 12 -28 21 -32 20
-5 -2 -8 2 -8 7 0 6 6 10 13 10 8 0 7 3 -3 9 -16 11 -33 4 -25 -9 3 -5 1 -11
-4 -14 -19 -12 -23 16 -5 29 11 7 20 18 20 24 3 24 5 25 19 7 8 -10 12 -22 10
-26z m-665 0 c0 -5 -7 -7 -15 -4 -8 4 -15 8 -15 10 0 2 7 4 15 4 8 0 15 -4 15
-10z m900 0 c0 -5 -2 -10 -4 -10 -3 0 -8 5 -11 10 -3 6 -1 10 4 10 6 0 11 -4
11 -10z m-615 -20 c3 -6 -1 -7 -9 -4 -18 7 -21 14 -7 14 6 0 13 -4 16 -10z
m599 -5 c3 -8 1 -15 -4 -15 -6 0 -10 7 -10 15 0 8 2 15 4 15 2 0 6 -7 10 -15z
m-849 -5 c3 -6 -1 -7 -9 -4 -18 7 -21 14 -7 14 6 0 13 -4 16 -10z m-169 -57
c-5 -12 -10 -13 -18 -5 -8 8 -8 15 3 28 15 18 25 4 15 -23z m877 -30 c8 -16
22 -41 31 -58 22 -41 20 -54 -5 -48 -14 4 -17 9 -10 16 16 16 14 25 -10 38
-17 9 -24 8 -31 -2 -8 -11 -9 -10 -5 2 3 9 0 22 -6 29 -9 10 -8 12 6 7 9 -4
17 -2 17 3 0 6 -4 10 -10 10 -5 0 -10 7 -10 15 0 24 17 17 33 -12z m101 -37
c-3 -8 -1 -17 5 -21 16 -9 14 -25 -3 -25 -19 0 -29 29 -16 45 8 9 6 17 -5 28
-8 9 -15 19 -15 24 1 4 9 -2 20 -15 10 -13 17 -29 14 -36z m94 42 c-2 -6 -10
-13 -16 -14 -7 -1 -8 0 -2 3 5 2 8 9 4 14 -3 5 0 9 6 9 7 0 10 -5 8 -12z m-28
-38 c6 -11 7 -20 2 -20 -6 0 -12 9 -15 20 -3 11 -3 20 -1 20 2 0 8 -9 14 -20z
m-210 -70 c0 -5 -7 -7 -15 -4 -8 4 -15 8 -15 10 0 2 7 4 15 4 8 0 15 -4 15
-10z m175 -18 c-3 -3 -11 0 -18 7 -9 10 -8 11 6 5 10 -3 15 -9 12 -12z m-50
-22 c3 -5 -1 -10 -10 -10 -9 0 -13 5 -10 10 3 6 8 10 10 10 2 0 7 -4 10 -10z
m135 0 c0 -5 -2 -10 -4 -10 -3 0 -8 5 -11 10 -3 6 -1 10 4 10 6 0 11 -4 11
-10z m-66 -15 c-4 -8 -11 -15 -16 -15 -6 0 -5 6 2 15 7 8 14 15 16 15 2 0 1
-7 -2 -15z m-50 -31 c3 -7 -3 -10 -15 -7 -27 7 -34 22 -9 20 10 -1 22 -7 24
-13z m116 1 c0 -10 -9 -15 -27 -14 -26 2 -27 2 -4 6 19 4 21 7 10 14 -11 7
-11 9 4 9 9 0 17 -7 17 -15z m-656 -24 c-2 -3 -12 3 -22 13 -16 17 -16 18 5 5
12 -7 20 -15 17 -18z m-204 -11 c0 -5 -7 -10 -16 -10 -8 0 -12 5 -9 10 3 6 10
10 16 10 5 0 9 -4 9 -10z m775 -16 c8 -10 15 -27 15 -36 0 -9 7 -21 16 -26 13
-7 14 -13 6 -28 -11 -18 -11 -18 -12 -1 0 30 -40 79 -59 73 -13 -5 -13 -4 2 8
17 13 25 32 9 22 -4 -2 -14 0 -22 5 -12 7 -10 8 8 6 12 -2 29 -12 37 -23z
m113 -8 c-7 -8 -15 -12 -17 -11 -5 6 10 25 20 25 5 0 4 -6 -3 -14z m-1008 -16
c0 -5 -5 -10 -11 -10 -5 0 -7 5 -4 10 3 6 8 10 11 10 2 0 4 -4 4 -10z m137
-35 c8 -22 -6 -33 -17 -15 -8 13 -10 12 -10 -2 0 -10 -4 -18 -10 -18 -14 0
-13 23 2 38 16 16 27 15 35 -3z m128 -4 c3 -5 2 -12 -3 -15 -5 -3 -9 1 -9 9 0
17 3 19 12 6z m-35 -11 c0 -5 -7 -7 -15 -4 -8 4 -15 8 -15 10 0 2 7 4 15 4 8
0 15 -4 15 -10z m146 -51 c9 -15 -23 -10 -35 5 -10 12 -8 13 9 9 11 -3 23 -9
26 -14z m44 11 c0 -5 -4 -10 -10 -10 -5 0 -10 5 -10 10 0 6 5 10 10 10 6 0 10
-4 10 -10z m-100 -10 c0 -5 -9 -10 -20 -10 -11 0 -20 -4 -20 -9 0 -5 9 -13 20
-16 11 -3 20 -12 20 -18 0 -7 23 -25 50 -42 47 -29 62 -45 40 -45 -5 0 -10 4
-10 9 0 5 -17 15 -37 21 -21 7 -45 19 -54 26 -9 8 -18 12 -21 9 -3 -3 -11 1
-18 10 -7 8 -21 15 -32 15 -11 0 -18 5 -15 13 2 6 14 12 25 11 12 0 20 1 18 4
-3 2 1 10 7 18 14 16 47 19 47 4z m-160 -10 c0 -5 -2 -10 -4 -10 -3 0 -8 5
-11 10 -3 6 -1 10 4 10 6 0 11 -4 11 -10z m190 -9 c0 -6 -4 -13 -10 -16 -5 -3
-10 1 -10 9 0 9 5 16 10 16 6 0 10 -4 10 -9z m627 -36 c0 -8 -4 -12 -9 -9 -5
3 -6 10 -3 15 9 13 12 11 12 -6z m-303 -51 c3 -8 2 -12 -4 -9 -6 3 -10 10 -10
16 0 14 7 11 14 -7z"/>
<path d="M1720 2290 c0 -5 5 -10 10 -10 6 0 10 5 10 10 0 6 -4 10 -10 10 -5 0
-10 -4 -10 -10z"/>
<path d="M2604 2015 c8 -8 17 -15 20 -15 3 0 3 7 0 15 -4 8 -13 15 -21 15 -12
0 -12 -2 1 -15z"/>
<path d="M2688 1943 c7 -3 16 -2 19 1 4 3 -2 6 -13 5 -11 0 -14 -3 -6 -6z"/>
<path d="M2685 1930 c-39 -7 -39 -7 -7 -9 17 0 32 -5 32 -11 0 -5 -14 -7 -32
-4 -25 4 -29 3 -18 -5 18 -13 60 -14 60 -2 0 5 8 12 18 14 14 4 14 5 -3 6 -17
1 -18 3 -5 11 16 11 14 11 -45 0z"/>
<path d="M2686 1835 c4 -8 8 -15 10 -15 2 0 4 7 4 15 0 8 -4 15 -10 15 -5 0
-7 -7 -4 -15z"/>
<path d="M2765 1785 c4 -17 11 -34 16 -39 5 -5 4 5 -1 24 -12 42 -24 55 -15
15z"/>
<path d="M2822 1705 c5 -22 2 -25 -16 -20 -17 5 -18 4 -6 -4 25 -18 40 -12 40
15 0 16 4 23 12 18 7 -4 8 -3 4 4 -4 7 -14 12 -23 12 -11 0 -14 -7 -11 -25z"/>
<path d="M2830 1650 c0 -5 5 -10 10 -10 6 0 10 5 10 10 0 6 -4 10 -10 10 -5 0
-10 -4 -10 -10z"/>
<path d="M2800 1621 c0 -5 9 -7 20 -4 11 3 20 7 20 9 0 2 -9 4 -20 4 -11 0
-20 -4 -20 -9z"/>
<path d="M2838 1611 c-22 -22 -23 -37 -3 -45 9 -3 16 1 16 9 2 24 4 29 12 43
12 18 -5 14 -25 -7z"/>
<path d="M2585 1730 c-3 -5 -1 -10 4 -10 6 0 11 5 11 10 0 6 -2 10 -4 10 -3 0
-8 -4 -11 -10z"/>
<path d="M2520 1726 c0 -2 7 -7 16 -10 8 -3 12 -2 9 4 -6 10 -25 14 -25 6z"/>
<path d="M2540 1700 c-8 -26 -5 -36 10 -36 9 0 17 6 17 13 0 7 -4 10 -8 7 -4
-2 -10 2 -12 8 -3 7 -6 11 -7 8z"/>
<path d="M2800 1375 c-11 -13 -10 -15 6 -12 20 3 31 20 16 25 -5 1 -15 -4 -22
-13z"/>
<path d="M2700 1370 c-9 -6 -10 -10 -3 -10 6 0 15 5 18 10 8 12 4 12 -15 0z"/>
<path d="M3155 770 c3 -5 11 -10 16 -10 6 0 7 5 4 10 -3 6 -11 10 -16 10 -6 0
-7 -4 -4 -10z"/>
<path d="M2844 5555 c-19 -14 -18 -14 4 -15 13 0 22 6 22 15 0 19 -1 19 -26 0z"/>
<path d="M4165 4900 c3 -5 8 -10 11 -10 2 0 4 5 4 10 0 6 -5 10 -11 10 -5 0
-7 -4 -4 -10z"/>
<path d="M4190 4844 c0 -8 5 -12 10 -9 6 4 8 11 5 16 -9 14 -15 11 -15 -7z"/>
<path d="M3160 4323 c-8 -3 -19 -12 -23 -19 -4 -8 -19 -14 -33 -14 -14 0 -22
4 -19 10 9 14 -8 13 -23 -2 -7 -7 -12 -8 -12 -2 0 16 -137 11 -154 -6 -21 -21
-6 -40 37 -47 26 -4 41 -1 53 12 9 9 26 14 36 12 11 -3 32 -1 48 5 16 5 39 8
52 6 l23 -3 -25 -14 c-13 -8 -58 -22 -99 -33 -41 -10 -82 -25 -91 -33 -9 -8
-32 -15 -51 -15 l-34 -1 25 -14 c14 -8 45 -15 70 -15 25 0 52 -4 60 -10 9 -5
19 -5 27 2 9 7 26 7 57 -1 63 -16 74 -14 88 13 12 23 15 24 45 11 23 -10 31
-19 27 -29 -4 -10 1 -18 10 -22 14 -5 14 -9 4 -22 -11 -13 -10 -15 4 -9 10 3
20 2 23 -3 4 -6 -4 -10 -17 -10 -13 0 -34 -7 -46 -16 -13 -9 -44 -15 -75 -16
-39 0 -47 -3 -32 -9 20 -9 -34 -4 -80 7 -15 4 -14 1 5 -10 46 -28 240 -16 240
15 0 5 6 9 14 9 20 0 30 18 17 33 -17 21 44 40 64 21 15 -16 40 -10 30 6 -15
24 9 60 51 79 48 23 60 46 19 39 -14 -3 -25 -1 -25 4 0 5 -4 6 -10 3 -5 -3
-10 4 -10 15 0 15 -5 20 -14 17 -8 -3 -20 0 -26 8 -11 13 -45 22 -117 32 -24
3 -41 8 -38 12 5 9 -53 12 -75 4z m-170 -39 c0 -2 -19 -4 -42 -3 -31 0 -37 3
-24 8 18 7 66 3 66 -5z"/>
<path d="M2998 4063 c7 -3 16 -2 19 1 4 3 -2 6 -13 5 -11 0 -14 -3 -6 -6z"/>
<path d="M2489 4035 c-4 -5 -7 -23 -7 -39 0 -23 2 -26 10 -12 10 18 7 67 -3
51z"/>
<path d="M3188 3804 c-39 -21 -35 -28 5 -8 37 19 44 24 31 24 -5 -1 -21 -8
-36 -16z"/>
<path d="M3300 3699 c0 -16 83 -49 96 -38 7 6 16 4 24 -5 16 -21 3 -38 -23
-30 -11 4 -41 8 -64 10 -40 2 -45 0 -55 -24 -9 -21 -12 -23 -15 -10 -4 16 -6
16 -28 2 -13 -9 -28 -13 -34 -10 -7 5 -31 -42 -31 -59 0 -9 35 -14 44 -6 7 6
16 4 23 -4 10 -11 10 -16 1 -21 -16 -10 -148 -11 -148 -1 0 4 5 7 12 7 6 0 8
3 5 6 -3 4 -2 15 4 26 6 11 12 27 14 38 3 14 -1 17 -18 12 -20 -5 -21 -4 -7
13 14 16 13 17 -7 11 -13 -4 -35 -9 -50 -12 -26 -5 -73 -46 -73 -65 0 -5 -6
-9 -13 -9 -28 0 -58 -46 -60 -91 -1 -24 -8 -50 -15 -58 -8 -8 -12 -25 -9 -38
2 -12 0 -23 -5 -23 -5 0 -8 -6 -6 -12 1 -7 -2 -23 -6 -36 -4 -13 -5 -26 -2
-29 6 -6 36 22 36 34 0 5 22 32 48 61 45 49 50 52 83 46 18 -4 46 -13 62 -21
20 -10 32 -11 47 -3 16 8 20 8 20 -3 0 -8 7 -21 16 -28 13 -11 17 -10 25 4 6
9 19 17 29 17 19 0 36 17 27 26 -2 3 -16 -1 -30 -7 -35 -16 -57 2 -57 47 0 32
2 34 33 34 18 0 38 -5 45 -12 9 -9 15 -9 24 0 16 16 45 15 50 0 3 -7 19 -11
41 -10 20 2 47 -4 60 -13 14 -8 32 -13 41 -9 9 3 27 -1 41 -10 13 -9 30 -13
38 -10 8 3 18 1 21 -4 3 -6 15 -8 26 -5 25 7 27 -22 4 -55 -12 -17 -19 -20
-29 -12 -17 14 -48 1 -41 -17 3 -8 6 -24 6 -35 0 -21 18 -22 62 -3 28 11 33
-20 8 -55 -12 -16 -17 -30 -11 -30 12 0 22 14 42 64 9 22 21 42 26 43 6 2 18
-15 28 -39 11 -28 13 -44 6 -46 -6 -2 -8 -8 -5 -14 4 -6 0 -14 -7 -19 -9 -6
-10 -9 -2 -9 8 0 9 -9 4 -27 -4 -16 -7 -35 -6 -43 1 -8 -7 -25 -18 -37 -10
-12 -20 -33 -21 -47 0 -17 -6 -24 -13 -21 -12 4 -17 -7 -14 -28 0 -4 -4 -6
-11 -5 -6 2 -14 -8 -18 -22 -6 -21 -8 -23 -15 -8 -4 10 -11 15 -16 12 -5 -3
-13 3 -17 13 -4 10 -18 19 -31 21 -20 2 -22 0 -11 -13 15 -18 -1 -20 -18 -3
-23 23 -38 17 -34 -14 4 -27 3 -29 -14 -20 -15 9 -21 6 -31 -11 -10 -19 -12
-19 -13 -4 0 23 -27 64 -46 71 -12 5 -14 -1 -8 -32 6 -31 5 -35 -7 -26 -8 6
-29 11 -47 9 -21 -1 -36 3 -39 12 -7 18 -30 16 -42 -4 -6 -10 -11 -13 -11 -7
0 7 -7 15 -16 18 -8 3 -12 2 -9 -3 3 -5 0 -13 -6 -17 -6 -3 -15 0 -20 7 -7 11
-11 10 -23 -6 -13 -18 -14 -18 -9 9 4 18 2 27 -4 23 -11 -7 -53 28 -53 43 0 5
-16 12 -35 16 -19 3 -35 10 -35 16 0 5 -5 6 -11 3 -5 -4 -21 5 -33 18 l-24 26
-33 -25 c-33 -24 -53 -17 -30 10 9 11 6 12 -13 9 -13 -3 -27 0 -30 6 -4 6 -16
11 -27 11 -13 0 -18 4 -13 12 5 8 2 9 -12 3 -10 -5 -29 -9 -41 -9 l-21 -1 21
-40 c12 -22 30 -50 41 -63 16 -18 18 -25 8 -31 -10 -6 -10 -10 2 -20 11 -10
15 -9 19 1 2 7 3 5 2 -4 -3 -20 47 -83 67 -83 29 -2 143 -66 174 -99 18 -19
35 -32 37 -29 11 10 67 -9 67 -23 0 -16 26 -19 35 -4 9 15 36 12 56 -6 16 -14
24 -14 91 1 40 9 97 25 127 36 30 11 56 18 58 15 2 -2 25 18 50 45 25 27 53
49 62 49 14 0 14 2 1 10 -13 8 -12 10 3 10 13 0 17 9 17 40 0 22 5 40 10 40 6
0 10 -4 10 -9 0 -5 9 -11 20 -14 11 -3 18 -2 15 2 -9 16 -13 101 -4 101 5 0 9
7 9 15 0 8 9 24 20 35 11 11 20 27 20 36 0 8 4 13 9 10 4 -3 11 32 13 77 4 62
12 94 32 131 15 29 26 65 26 88 0 23 4 37 10 33 5 -3 20 17 32 45 12 27 25 50
30 50 4 0 8 4 8 10 0 5 -7 7 -15 4 -8 -4 -17 1 -21 10 -3 9 -10 14 -14 11 -20
-13 -41 12 -56 66 -9 32 -23 64 -30 70 -18 14 -17 6 1 -55 8 -27 15 -57 15
-68 0 -28 -32 -22 -65 12 -20 21 -33 27 -44 21 -9 -5 -37 -11 -63 -14 -43 -6
-48 -5 -48 12 0 31 -67 80 -119 86 -25 3 -61 7 -78 10 -18 2 -33 -1 -33 -6z
m471 -166 c13 -16 12 -17 -3 -4 -17 13 -22 21 -14 21 2 0 10 -8 17 -17z m-410
-40 c-10 -17 -10 -16 -11 3 0 23 13 41 18 25 2 -6 -1 -18 -7 -28z m181 -28
c22 -18 22 -18 3 -26 -32 -12 -59 -10 -83 7 -22 15 -22 17 -5 30 23 17 58 13
85 -11z m-407 -25 c8 -13 -3 -50 -15 -50 -12 0 -23 37 -15 50 3 5 10 10 15 10
5 0 12 -5 15 -10z m570 -320 c-3 -5 -12 -10 -18 -10 -7 0 -6 4 3 10 19 12 23
12 15 0z m-5 -24 c0 -3 -4 -8 -10 -11 -5 -3 -10 -1 -10 4 0 6 5 11 10 11 6 0
10 -2 10 -4z m-940 -56 c0 -5 -8 -10 -17 -10 -15 0 -16 2 -3 10 19 12 20 12
20 0z m30 -71 c0 -11 -4 -18 -10 -14 -5 3 -7 12 -3 20 7 21 13 19 13 -6z m858
-44 c-3 -3 -9 2 -12 12 -6 14 -5 15 5 6 7 -7 10 -15 7 -18z"/>
<path d="M1820 3351 c0 -5 5 -13 10 -16 6 -3 10 -2 10 4 0 5 -4 13 -10 16 -5
3 -10 2 -10 -4z"/>
<path d="M2443 3271 c1 -17 5 -31 9 -31 3 0 13 -3 22 -6 25 -10 19 19 -9 46
l-24 23 2 -32z"/>
<path d="M3538 3163 c7 -3 16 -2 19 1 4 3 -2 6 -13 5 -11 0 -14 -3 -6 -6z"/>
<path d="M3305 3140 c-3 -5 -17 -10 -30 -10 -12 0 -25 -6 -28 -14 -7 -17 18
-40 33 -31 5 3 10 0 10 -8 0 -8 7 -20 15 -27 8 -7 12 -16 9 -21 -3 -5 -1 -9 5
-9 6 0 20 -17 31 -37 l21 -38 -6 31 c-5 28 -3 32 19 36 29 6 40 0 49 -24 9
-25 27 -22 28 5 0 12 3 17 5 10 6 -13 44 19 44 36 0 5 10 11 22 13 15 2 22 11
23 27 1 14 7 27 13 29 17 5 15 32 -2 32 -8 0 -17 -4 -20 -8 -3 -5 -40 -3 -83
4 -96 16 -150 17 -158 4z"/>
<path d="M3258 2524 c-9 -14 -78 -291 -78 -314 0 -15 29 -50 42 -50 3 0 9 30
13 68 4 37 13 93 21 124 15 56 16 194 2 172z"/>
<path d="M3365 2348 c22 -94 21 -104 -3 -192 -16 -61 -22 -103 -18 -130 3 -23
6 -56 6 -73 -1 -18 3 -33 8 -33 12 0 98 -84 111 -108 16 -30 14 -58 -8 -101
l-20 -37 32 -97 c26 -77 36 -97 52 -98 17 -1 17 -2 3 -6 -19 -5 -25 -33 -7
-33 5 0 7 -4 4 -10 -3 -5 0 -10 7 -10 9 0 9 -3 -2 -10 -13 -9 -13 -10 0 -10
13 0 13 -1 0 -10 -13 -8 -12 -10 3 -10 15 0 16 -3 7 -20 -6 -12 -7 -20 -1 -20
5 0 7 -9 4 -20 -3 -11 -1 -20 5 -20 6 0 8 -9 5 -20 -3 -11 0 -27 7 -35 6 -8 9
-18 6 -24 -3 -5 -1 -22 5 -38 7 -15 11 -40 10 -56 -2 -16 2 -27 10 -27 7 0 9
-3 6 -7 -4 -3 -1 -13 6 -21 9 -13 9 -14 0 -8 -9 5 -13 0 -13 -13 0 -12 3 -21
8 -21 4 0 8 -21 10 -48 2 -26 7 -63 12 -82 4 -19 7 -50 6 -68 -2 -21 2 -36 11
-39 11 -4 10 -8 -3 -17 -14 -11 -15 -21 -6 -82 11 -65 15 -105 27 -269 15
-190 13 -184 71 -166 16 5 70 22 119 37 135 40 249 86 397 158 274 134 471
267 663 449 64 61 76 76 58 77 -28 0 -40 18 -18 26 15 6 14 10 -8 30 -19 17
-24 30 -21 60 1 22 -2 42 -9 46 -17 11 -29 10 -22 -2 3 -5 1 -10 -5 -10 -6 0
-8 10 -4 24 3 13 1 27 -5 30 -6 4 -11 16 -11 28 0 15 -4 18 -17 13 -33 -12
-36 -10 -39 30 -2 22 -11 47 -21 55 -22 18 -45 68 -38 80 10 16 -32 49 -54 43
-16 -4 -21 -1 -21 16 0 11 -4 21 -9 21 -6 0 -24 28 -42 63 -18 34 -39 74 -46
90 -8 15 -19 27 -24 27 -5 0 -9 7 -9 15 0 16 -39 77 -52 83 -5 2 -8 9 -8 15 0
15 -91 109 -98 102 -3 -2 11 -24 30 -47 19 -24 42 -58 51 -75 l15 -33 -29 0
c-26 0 -28 2 -20 19 13 23 2 29 -51 27 l-37 -2 21 23 c19 20 19 23 4 23 -9 0
-19 7 -22 15 -4 8 -14 15 -23 15 -12 0 -13 2 -3 9 10 6 7 10 -13 15 -15 4 -30
5 -33 2 -3 -3 -12 3 -19 14 -8 11 -18 18 -23 15 -5 -3 -11 3 -15 14 -3 11 -19
22 -35 26 -19 4 -37 19 -50 41 -12 19 -26 32 -31 28 -5 -3 -12 2 -15 10 -3 9
-12 16 -20 16 -8 0 -14 5 -14 10 0 9 -48 34 -58 30 -1 0 -11 8 -21 17 -11 10
-46 31 -78 47 -32 15 -65 32 -73 37 -8 5 -44 23 -80 40 -36 17 -116 55 -177
85 -96 47 -185 84 -199 84 -3 0 -2 -10 1 -22z m969 -557 c3 -5 -7 -8 -23 -7
-40 2 -47 11 -11 14 16 1 31 -2 34 -7z m-767 -17 c-3 -3 -12 -4 -19 -1 -8 3
-5 6 6 6 11 1 17 -2 13 -5z m146 -16 c31 -16 67 -60 67 -81 0 -14 -5 -16 -25
-11 -15 4 -25 2 -25 -5 0 -17 -41 -13 -62 6 -24 21 -24 78 0 92 22 13 19 13
45 -1z m-96 -22 c3 -3 -1 -6 -10 -6 -20 0 -23 -16 -4 -24 6 -3 3 -5 -8 -3 -11
1 -20 8 -20 15 0 7 -6 17 -14 21 -9 6 -3 8 18 6 17 -1 34 -5 38 -9z m793 -16
c0 -5 -2 -10 -4 -10 -3 0 -8 5 -11 10 -3 6 -1 10 4 10 6 0 11 -4 11 -10z
m-207 -27 c-7 -2 -19 -2 -25 0 -7 3 -2 5 12 5 14 0 19 -2 13 -5z m302 -13 c3
-11 21 -41 39 -67 35 -53 49 -83 38 -83 -4 0 -14 9 -22 19 -7 11 -17 18 -22
15 -5 -3 -7 6 -4 20 3 14 0 26 -5 26 -18 0 -40 29 -37 47 2 10 -2 17 -9 16 -7
-2 -10 4 -7 12 8 21 21 19 29 -5z m-885 -56 c0 -21 -17 -17 -23 5 -3 14 -1 18
9 14 8 -3 14 -11 14 -19z m85 -12 c-3 -3 -11 0 -18 7 -9 10 -8 11 6 5 10 -3
15 -9 12 -12z m-68 -75 c-3 -19 -5 -17 -12 11 -4 17 -12 32 -17 32 -5 0 -6 5
-3 11 11 16 37 -28 32 -54z m63 43 c0 -5 -2 -10 -4 -10 -3 0 -8 5 -11 10 -3 6
-1 10 4 10 6 0 11 -4 11 -10z m99 -67 c2 -2 -3 -3 -11 -3 -9 0 -19 7 -22 16
-6 15 -4 15 11 3 10 -7 20 -15 22 -16z m1 -23 c0 -5 -7 -10 -15 -10 -8 0 -15
5 -15 10 0 6 7 10 15 10 8 0 15 -4 15 -10z m330 -10 c0 -5 -5 -10 -11 -10 -5
0 -7 5 -4 10 3 6 8 10 11 10 2 0 4 -4 4 -10z m410 -4 c0 -3 -4 -8 -10 -11 -5
-3 -10 -1 -10 4 0 6 5 11 10 11 6 0 10 -2 10 -4z m90 -36 c0 -10 -3 -21 -8
-23 -4 -3 -7 8 -7 23 -1 16 3 26 7 24 4 -3 8 -14 8 -24z m-843 14 c-3 -3 -12
-4 -19 -1 -8 3 -5 6 6 6 11 1 17 -2 13 -5z m53 -4 c0 -5 -5 -10 -11 -10 -5 0
-7 5 -4 10 3 6 8 10 11 10 2 0 4 -4 4 -10z m125 0 c3 -5 1 -10 -4 -10 -6 0
-11 5 -11 10 0 6 2 10 4 10 3 0 8 -4 11 -10z m-305 -60 c0 -5 -5 -10 -11 -10
-5 0 -7 5 -4 10 3 6 8 10 11 10 2 0 4 -4 4 -10z m20 -19 c0 -18 -27 -37 -38
-26 -5 4 26 45 35 45 1 0 3 -9 3 -19z m475 -2 c-5 -6 -55 0 -55 7 0 3 13 3 29
2 16 -1 28 -5 26 -9z m-74 -17 c-7 -2 -18 1 -23 6 -8 8 -4 9 13 5 13 -4 18 -8
10 -11z m126 12 c-3 -3 -12 -4 -19 -1 -8 3 -5 6 6 6 11 1 17 -2 13 -5z m-432
-22 c-3 -3 -11 0 -18 7 -9 10 -8 11 6 5 10 -3 15 -9 12 -12z m-145 -2 c0 -5
-5 -10 -11 -10 -5 0 -7 5 -4 10 3 6 8 10 11 10 2 0 4 -4 4 -10z m614 2 c3 -5
-1 -9 -9 -9 -8 0 -12 4 -9 9 3 4 7 8 9 8 2 0 6 -4 9 -8z m-549 -12 c3 -5 1
-10 -4 -10 -6 0 -11 5 -11 10 0 6 2 10 4 10 3 0 8 -4 11 -10z m111 1 c-3 -5 6
-12 21 -16 21 -5 24 -8 13 -15 -9 -6 -20 -4 -31 6 -22 20 -31 17 -24 -7 5 -15
4 -19 -4 -15 -14 9 -14 29 1 44 14 14 32 16 24 3z m551 -7 c-3 -3 -12 -4 -19
-1 -8 3 -5 6 6 6 11 1 17 -2 13 -5z m-111 -41 c-10 -10 -19 5 -10 18 6 11 8
11 12 0 2 -7 1 -15 -2 -18z m-26 -44 c0 -5 -4 -9 -10 -9 -5 0 -10 7 -10 16 0
8 5 12 10 9 6 -3 10 -10 10 -16z m-122 -14 c-3 -3 -9 2 -12 12 -6 14 -5 15 5
6 7 -7 10 -15 7 -18z m165 5 c3 -11 1 -18 -4 -14 -5 3 -9 12 -9 20 0 20 7 17
13 -6z m-233 0 c0 -5 -9 -10 -20 -10 -11 0 -21 -4 -21 -10 -1 -5 -2 -15 -3
-22 0 -6 -7 -13 -14 -16 -11 -3 -12 0 -3 17 8 14 8 21 1 21 -5 0 -10 5 -10 11
0 6 7 9 15 6 8 -4 17 -2 20 3 8 13 35 13 35 0z m30 0 c0 -5 -5 -10 -11 -10 -5
0 -7 5 -4 10 3 6 8 10 11 10 2 0 4 -4 4 -10z m-421 -41 c1 8 4 11 7 8 7 -7
-14 -37 -25 -37 -4 0 -5 15 -2 33 4 31 5 31 12 7 4 -14 7 -19 8 -11z m210 -14
c-7 -6 -13 -5 -18 4 -5 7 -15 10 -22 7 -8 -4 -6 -1 5 8 14 11 21 12 31 3 9 -8
10 -16 4 -22z m191 20 c0 -1 -9 -5 -20 -8 -12 -3 -20 0 -20 8 0 8 8 11 20 8
11 -3 20 -7 20 -8z m109 -24 c24 -22 40 -44 37 -49 -3 -6 1 -13 10 -16 12 -5
15 -2 10 11 -5 15 -3 14 9 -2 8 -11 24 -29 35 -41 l19 -21 -26 5 c-18 3 -24 1
-19 -7 4 -6 14 -11 22 -11 25 0 10 -23 -17 -27 -19 -2 -21 -1 -9 7 12 8 13 10
1 10 -8 0 -11 3 -8 6 3 4 2 15 -4 25 -5 11 -6 18 -2 17 4 -2 8 2 8 7 0 6 -4 9
-9 7 -4 -1 -14 2 -21 8 -15 12 -30 -3 -20 -20 3 -6 -4 -10 -16 -10 -17 0 -20
3 -12 11 6 6 9 18 6 26 -4 10 0 13 12 11 10 -2 20 3 22 10 3 6 -2 12 -10 12
-8 0 -17 7 -21 15 -3 10 -14 14 -28 12 -13 -2 -17 -2 -10 0 14 5 16 23 2 23
-5 0 -10 5 -10 10 0 15 3 13 49 -29z m-65 14 c-4 -8 -9 -15 -13 -15 -4 0 -8 7
-8 15 0 8 6 15 13 15 8 0 11 -6 8 -15z m136 -1 c0 -8 -5 -12 -10 -9 -6 4 -8
11 -5 16 9 14 15 11 15 -7z m-536 -12 c3 -5 -1 -9 -9 -9 -8 0 -12 4 -9 9 3 4
7 8 9 8 2 0 6 -4 9 -8z m352 -40 c-17 -16 -18 -16 -5 5 7 12 15 20 18 17 3 -2
-3 -12 -13 -22z m-349 12 c-3 -3 -12 -4 -19 -1 -8 3 -5 6 6 6 11 1 17 -2 13
-5z m1170 -19 c0 -8 -4 -12 -9 -9 -5 3 -6 10 -3 15 9 13 12 11 12 -6z m-1177
-5 c0 -5 -4 -10 -10 -10 -5 0 -10 5 -10 10 0 6 5 10 10 10 6 0 10 -4 10 -10z
m166 -19 c-3 -5 6 -16 20 -26 14 -9 24 -19 21 -22 -6 -6 -57 37 -57 49 0 4 5
8 11 8 5 0 8 -4 5 -9z m141 -5 c0 -8 -6 -12 -15 -9 -11 5 -11 7 0 14 7 5 13 9
14 9 0 0 1 -6 1 -14z m-320 -10 c0 -8 -6 -12 -15 -9 -11 5 -11 7 0 14 7 5 13
9 14 9 0 0 1 -6 1 -14z m438 -6 c-3 -5 -10 -10 -16 -10 -5 0 -9 5 -9 10 0 6 7
10 16 10 8 0 12 -4 9 -10z m-115 -22 c0 -5 -8 -4 -19 1 -10 6 -22 7 -26 3 -5
-4 -5 -2 -2 5 8 13 47 6 47 -9z m80 2 c0 -5 -8 -10 -17 -10 -15 0 -16 2 -3 10
19 12 20 12 20 0z m275 -10 c-3 -5 -1 -10 6 -10 7 0 10 -3 6 -6 -9 -9 -28 6
-22 17 4 5 8 9 11 9 3 0 2 -4 -1 -10z m-491 -11 c-3 -6 -1 -15 6 -19 8 -5 8
-10 2 -14 -5 -3 -17 5 -26 19 -16 24 -16 25 4 25 13 0 19 -4 14 -11z m121 -19
c-6 -9 8 -14 28 -11 4 0 6 -3 5 -8 -2 -5 4 -16 12 -23 8 -7 13 -12 11 -11 -2
2 -10 -2 -18 -8 -7 -6 -13 -8 -13 -4 0 4 -7 2 -15 -5 -8 -7 -15 -9 -15 -5 0 4
7 13 15 19 13 10 13 13 -6 24 -12 8 -18 9 -15 4 3 -5 -1 -15 -9 -22 -12 -10
-13 -8 -10 10 2 12 9 28 16 36 13 16 23 19 14 4z m225 -28 c-8 -3 -25 -13 -36
-24 -15 -13 -24 -16 -29 -9 -3 7 -3 11 2 10 20 -3 27 2 13 11 -12 8 -11 10 7
10 12 0 25 5 28 10 4 6 11 7 18 3 8 -4 7 -8 -3 -11z m94 -6 c-7 -18 -35 -30
-31 -13 2 10 16 20 34 26 1 1 0 -5 -3 -13z m-210 -14 c3 -5 -1 -9 -9 -9 -8 0
-12 4 -9 9 3 4 7 8 9 8 2 0 6 -4 9 -8z m-221 -22 c20 -24 6 -27 -17 -4 -18 17
-20 24 -8 24 4 0 15 -9 25 -20z m299 -22 c-6 -6 -15 -8 -19 -4 -4 4 -1 11 7
16 19 12 27 3 12 -12z m126 -11 c7 -5 10 -13 6 -18 -3 -5 -9 -7 -14 -4 -5 3
-11 1 -15 -5 -3 -5 -13 -10 -21 -10 -8 0 -12 5 -9 10 4 6 10 8 15 5 4 -3 6 4
3 14 -5 20 10 23 35 8z m-105 -24 c5 -26 4 -26 -9 -9 -7 10 -11 23 -8 27 8 14
11 11 17 -18z m-305 -13 c12 -19 11 -20 -8 -8 -11 7 -20 16 -20 20 0 15 15 8
28 -12z m188 -32 c4 -6 3 -8 -3 -5 -6 4 -16 0 -23 -8 -8 -10 -17 -12 -30 -5
-11 6 -21 5 -30 -3 -9 -8 -11 -9 -6 0 3 6 0 14 -6 17 -7 3 6 3 30 0 27 -4 42
-2 42 5 0 14 17 14 26 -1z m194 0 c0 -4 -4 -10 -10 -13 -5 -3 -10 -2 -10 3 0
6 -9 8 -19 5 -11 -3 -27 -1 -36 4 -12 7 -4 9 29 9 25 -1 46 -4 46 -8z m-175
-37 c-10 -17 13 -22 28 -6 13 13 16 13 21 -1 3 -9 11 -12 18 -8 7 4 9 3 5 -1
-10 -11 -127 -14 -121 -3 3 5 9 6 14 3 4 -3 13 2 20 10 14 17 25 20 15 6z
m143 -3 c-2 -7 3 -12 10 -10 8 1 11 -2 7 -8 -3 -6 -12 -7 -18 -3 -7 4 -18 8
-25 9 -8 2 -17 6 -20 10 -4 4 1 4 10 1 10 -3 20 -2 23 3 9 14 15 12 13 -2z
m246 -27 c-5 -6 -34 20 -34 30 0 5 8 1 18 -8 10 -10 17 -20 16 -22z m-64 19
c12 -8 12 -10 -5 -10 -11 0 -27 5 -35 10 -12 8 -12 10 5 10 11 0 27 -5 35 -10z
m-400 -16 c0 -8 -19 -13 -24 -6 -3 5 1 9 9 9 8 0 15 -2 15 -3z m275 -16 c5 4
5 1 1 -6 -6 -9 -11 -10 -20 -3 -7 6 -17 7 -21 3 -5 -4 -5 -1 -1 6 6 9 11 10
20 3 7 -6 17 -7 21 -3z m-158 -4 c-3 -3 -12 -4 -19 -1 -8 3 -5 6 6 6 11 1 17
-2 13 -5z m-23 -43 c-6 -6 -24 19 -24 34 1 6 7 1 15 -9 8 -11 12 -22 9 -25z
m-37 12 c0 -9 -4 -10 -14 -2 -7 6 -13 12 -13 14 0 1 6 2 13 2 8 0 14 -6 14
-14z m358 7 c3 -6 -1 -7 -9 -4 -18 7 -21 14 -7 14 6 0 13 -4 16 -10z m-515
-36 c0 -8 -4 -12 -10 -9 -5 3 -10 13 -10 21 0 8 5 12 10 9 6 -3 10 -13 10 -21z
m126 14 c4 -6 3 -8 -4 -4 -5 3 -12 0 -15 -6 -2 -7 -8 -9 -13 -5 -5 4 -2 12 6
17 19 12 17 12 26 -2z m-159 -30 c-3 -8 -6 -5 -6 6 -1 11 2 17 5 13 3 -3 4
-12 1 -19z m50 -64 c-3 -3 -12 -4 -19 -1 -8 3 -5 6 6 6 11 1 17 -2 13 -5z
m143 -84 c0 -5 -5 -10 -11 -10 -5 0 -7 5 -4 10 3 6 8 10 11 10 2 0 4 -4 4 -10z"/>
<path d="M3682 1699 c2 -7 10 -15 17 -17 8 -3 12 1 9 9 -2 7 -10 15 -17 17 -8
3 -12 -1 -9 -9z"/>
<path d="M4336 1895 c25 -19 40 -19 24 0 -7 8 -20 15 -28 15 -13 0 -12 -3 4
-15z"/>
<path d="M3046 1345 c4 -8 8 -15 10 -15 2 0 4 7 4 15 0 8 -4 15 -10 15 -5 0
-7 -7 -4 -15z"/>
<path d="M3188 1353 c7 -3 16 -2 19 1 4 3 -2 6 -13 5 -11 0 -14 -3 -6 -6z"/>
</g>
</svg>
